<svg width="384" height="272" viewBox="0 0 384 272" fill="none" xmlns="http://www.w3.org/2000/svg">
<path d="M384 272H0V3.36468e-05H384V272Z" fill="white"/>
<path d="M49.0815 232.96C49.0815 232.96 9.43176 187.728 42.3761 138.758C71.6065 95.3088 105.686 98.279 130.691 115.911C141.339 123.421 172.042 116.836 198.176 72.6253C233.812 12.3325 357.347 48.9001 334.822 141.662C323.922 186.551 367.995 188.183 345.539 233.055L49.0815 232.96Z" fill="#EBF3FA"/>
<path d="M125.225 145.516C125.225 145.516 105.61 115.85 97.9442 119.696C90.2787 123.542 125.225 145.516 125.225 145.516Z" fill="#A8D29F"/>
<path d="M123.978 137.545C123.978 137.545 120.981 115.24 116.258 116.114C111.535 116.99 123.978 137.545 123.978 137.545Z" fill="#A8D29F"/>
<path d="M107.394 207.068C107.394 207.068 109.28 197.143 101.957 195.896C101.957 195.896 96.9913 195.711 94.0672 197.7C94.0672 197.7 102.372 202.795 101.384 204.378C100.397 205.961 92.5157 197.993 92.5157 197.993C92.5157 197.993 83.6133 202.135 81.6264 205.137C81.6264 205.137 92.1463 207.128 90.8224 208.404C89.4984 209.681 78.461 208.148 78.461 208.148C78.461 208.148 71.3484 214.235 74.4462 219.081C77.544 223.927 81.0795 223.891 82.1986 223.05C83.3177 222.208 88.7957 215.25 89.4923 216.196C90.1888 217.143 87.7782 223.017 84.9265 224.918C84.9265 224.918 93.882 228.122 96.5795 224.061C99.277 220.002 98.0293 216.845 99.7393 214.367C101.449 211.891 103.41 210.731 103.06 212.429C102.71 214.128 99.1355 217.699 99.12 220.946C99.1045 224.192 98.8017 226.556 102.292 223.685C105.782 220.814 110.418 214.174 108.906 210.622C107.394 207.068 107.394 207.068 107.394 207.068Z" fill="#82B378"/>
<path d="M78.3806 216.925C78.3806 216.925 99.2689 203.38 107.394 207.068C107.394 207.068 110.181 209.766 114.978 210.883L116.24 212.035C116.24 212.035 110.362 210.086 108.906 210.622C108.906 210.622 106.75 201.356 78.3806 216.925Z" fill="#82B378"/>
<path d="M114.978 210.883C114.978 210.883 121.454 211.764 125.155 218.008L124.365 218.581C124.365 218.581 119.403 212.798 115.39 211.767C111.378 210.735 114.978 210.883 114.978 210.883Z" fill="#82B378"/>
<path d="M113.788 178.107C113.788 178.107 128.956 169.082 121.878 156.834C121.878 156.834 116.215 149.313 110.148 147.379C110.148 147.379 113.384 165.644 110.148 166.074C106.912 166.503 107.923 145.445 107.923 145.445C107.923 145.445 91.9461 137.28 85.6767 137.924C85.6767 137.924 95.5865 155.759 92.3506 155.33C89.1147 154.9 77.9915 136.85 77.9915 136.85C77.9915 136.85 61.61 133.625 58.9809 143.941C56.3517 154.255 60.5988 159.412 63.0257 160.057C65.4525 160.702 81.0251 160.487 80.6207 162.636C80.2162 164.784 69.6996 168.222 63.8346 166.289C63.8346 166.289 70.3064 183.264 78.8005 182.405C87.2946 181.545 89.9237 175.958 95.1819 175.528C100.44 175.099 104.283 176.603 101.654 178.107C99.0245 179.611 90.1259 178.599 85.8789 182.436C81.6319 186.272 78.1938 188.636 86.0811 190.355C93.9685 192.074 108.125 191 110.957 184.553C113.788 178.107 113.788 178.107 113.788 178.107Z" fill="#A8D29F"/>
<path d="M66.4636 147.164C66.4636 147.164 108.934 161.776 113.788 178.107C113.788 178.107 113.586 185.413 117.833 193.793V197.016C117.833 197.016 113.384 186.058 110.957 184.553C110.957 184.553 120.462 170.371 66.4636 147.164Z" fill="#82B378"/>
<path d="M117.833 193.793C117.833 193.793 124.382 204.36 120.649 217.225L118.963 216.743C118.963 216.743 120.599 202.575 117.173 195.448C113.746 188.322 117.833 193.793 117.833 193.793Z" fill="#82B378"/>
<path d="M129.204 102.598L106.51 227.257C106.048 229.794 107.876 232.148 110.307 232.148H122.276L129.204 102.598Z" fill="#ED7D2B"/>
<path d="M280.059 138.283C280.059 138.283 269.851 131.364 275.233 123.147C275.233 123.147 279.453 118.158 283.745 117.07C283.745 117.07 280.809 129.634 283.043 130.069C285.277 130.506 285.364 115.819 285.364 115.819C285.364 115.819 296.782 110.82 301.117 111.534C301.117 111.534 293.556 123.515 295.822 123.353C298.089 123.192 306.501 111.112 306.501 111.112C306.501 111.112 318.013 109.566 319.455 116.85C320.895 124.133 317.749 127.539 316.036 127.885C314.325 128.23 303.503 127.42 303.704 128.931C303.905 130.443 311.089 133.28 315.24 132.184C315.24 132.184 310.102 143.713 304.228 142.755C298.353 141.798 296.735 137.801 293.094 137.278C289.454 136.758 286.725 137.64 288.498 138.798C290.269 139.955 296.495 139.63 299.304 142.478C302.113 145.324 304.415 147.114 298.866 147.975C293.317 148.836 283.512 147.488 281.787 142.886C280.059 138.283 280.059 138.283 280.059 138.283Z" fill="#C7DCFB"/>
<path d="M314.13 118.773C314.13 118.773 284.049 127.133 280.059 138.283C280.059 138.283 279.926 143.371 276.658 149.019L276.536 151.261C276.536 151.261 280.042 143.828 281.787 142.886C281.787 142.886 275.709 132.62 314.13 118.773Z" fill="#C7DCFB"/>
<path d="M276.658 149.019C276.658 149.019 271.706 156.09 273.819 165.192L275.009 164.93C275.009 164.93 274.404 155.009 277.055 150.198C279.706 145.388 276.658 149.019 276.658 149.019Z" fill="#C7DCFB"/>
<path d="M252.575 108.251C252.575 108.251 236.89 104.591 240.059 91.7484C240.059 91.7484 243.167 83.4877 248.042 80.051C248.042 80.051 249.788 97.119 252.758 96.5764C255.726 96.0351 249.522 77.7091 249.522 77.7091C249.522 77.7091 261.586 65.941 267.291 64.7265C267.291 64.7265 263.028 83.3136 265.78 82.0121C268.532 80.7119 273.812 61.589 273.812 61.589C273.812 61.589 287.48 54.075 292.406 62.4444C297.331 70.8139 294.877 76.5816 292.895 77.8423C290.912 79.1031 277.092 83.3463 277.992 85.1306C278.891 86.9149 289.055 86.9612 293.751 83.5815C293.751 83.5815 292.312 100.429 284.586 102.088C276.861 103.746 273.128 99.5561 268.371 100.674C263.615 101.791 260.598 104.214 263.301 104.796C266.004 105.377 273.615 101.95 278.337 104.131C283.059 106.314 286.694 107.424 280.156 111.19C273.617 114.954 260.832 118.036 256.703 113.143C252.575 108.251 252.575 108.251 252.575 108.251Z" fill="#DFEBFD"/>
<path d="M286.605 67.4247C286.605 67.4247 252.746 92.4324 252.575 108.251C252.575 108.251 254.596 114.651 252.955 123.269L253.768 126.118C253.768 126.118 254.938 115.163 256.703 113.142C256.703 113.142 244.724 103.312 286.605 67.4247Z" fill="#DFEBFD"/>
<path d="M252.955 123.269C252.955 123.269 249.83 134.475 256.375 144.783L257.743 143.878C257.743 143.878 252.725 131.819 253.956 124.545C255.189 117.269 252.955 123.269 252.955 123.269Z" fill="#DFEBFD"/>
<path d="M129.477 102.094L114.435 224.49C113.936 228.548 116.91 232.148 120.762 232.148H142.829L130.387 101.652L129.477 102.094Z" fill="#78ACEA"/>
<path d="M129.477 102.094L122.743 223.709C122.49 228.287 125.915 232.148 130.231 232.148H163.142L129.477 102.094Z" fill="#699DEE"/>
<path d="M129.224 103.087L132.498 223.709C132.244 228.287 135.67 232.148 139.986 232.148H172.897L129.224 103.087Z" fill="#5288D8"/>
<path d="M286.796 232.148H157.029C153.79 232.148 151.012 229.688 150.43 226.301L130.684 111.569C129.787 106.36 133.553 101.561 138.537 101.561H266.775C270.015 101.561 272.792 104.021 273.375 107.407L293.395 223.736C294.149 228.114 290.985 232.148 286.796 232.148Z" fill="#D7E9FF"/>
<path d="M133.253 126.469H276.746L273.066 104.807C272.747 102.928 271.208 101.561 269.41 101.561H130.42C129.661 101.561 129.088 102.292 129.224 103.087L133.253 126.469Z" fill="#F99746"/>
<path d="M136.608 95.0423C133.176 95.0423 130.386 98.0057 130.386 101.65H131.581C131.581 98.7061 133.836 96.3111 136.608 96.3111C139.379 96.3111 141.635 98.7061 141.635 101.65C141.635 102.242 141.545 102.811 141.376 103.341C140.883 104.912 139.721 106.158 138.252 106.697C137.822 106.857 137.367 106.956 136.893 106.983V108.253C137.446 108.227 137.978 108.124 138.483 107.954C140.502 107.275 142.078 105.529 142.623 103.341C142.757 102.801 142.829 102.235 142.829 101.65C142.829 98.0057 140.038 95.0423 136.608 95.0423Z" fill="#78ACEA"/>
<path d="M138.532 107.572C138.532 107.704 138.514 107.833 138.483 107.954C138.326 108.559 137.805 109.003 137.185 109.003C136.442 109.003 135.837 108.362 135.837 107.572C135.837 106.782 136.442 106.14 137.185 106.14C137.619 106.14 138.004 106.36 138.251 106.697C138.428 106.94 138.532 107.243 138.532 107.572Z" fill="#78ACEA"/>
<path d="M158.912 95.0423C155.482 95.0423 152.691 98.0057 152.691 101.65H153.885C153.885 98.7061 156.141 96.3111 158.912 96.3111C161.684 96.3111 163.939 98.7061 163.939 101.65C163.939 102.242 163.848 102.811 163.68 103.341C163.186 104.912 162.025 106.158 160.555 106.697C160.127 106.857 159.671 106.956 159.197 106.983V108.253C159.749 108.227 160.282 108.124 160.787 107.954C162.806 107.275 164.383 105.529 164.928 103.341C165.062 102.801 165.134 102.235 165.134 101.65C165.134 98.0057 162.342 95.0423 158.912 95.0423Z" fill="#78ACEA"/>
<path d="M160.834 107.572C160.834 107.704 160.818 107.833 160.787 107.954C160.63 108.559 160.109 109.003 159.488 109.003C158.744 109.003 158.141 108.362 158.141 107.572C158.141 106.782 158.744 106.14 159.488 106.14C159.923 106.14 160.31 106.36 160.555 106.697C160.731 106.94 160.834 107.243 160.834 107.572Z" fill="#78ACEA"/>
<path d="M181.217 95.0423C177.787 95.0423 174.997 98.0057 174.997 101.65H176.19C176.19 98.7061 178.444 96.3111 181.217 96.3111C183.989 96.3111 186.244 98.7061 186.244 101.65C186.244 102.242 186.153 102.811 185.984 103.341C185.491 104.912 184.329 106.158 182.861 106.697C182.431 106.857 181.975 106.956 181.502 106.983V108.253C182.053 108.227 182.586 108.124 183.091 107.954C185.111 107.274 186.686 105.529 187.231 103.341C187.365 102.801 187.437 102.235 187.437 101.65C187.437 98.0057 184.647 95.0423 181.217 95.0423Z" fill="#78ACEA"/>
<path d="M183.14 107.572C183.14 107.704 183.122 107.833 183.091 107.954C182.934 108.559 182.413 109.003 181.793 109.003C181.049 109.003 180.445 108.362 180.445 107.572C180.445 106.782 181.049 106.14 181.793 106.14C182.227 106.14 182.612 106.36 182.861 106.697C183.036 106.94 183.14 107.243 183.14 107.572Z" fill="#78ACEA"/>
<path d="M203.52 95.0423C200.09 95.0423 197.301 98.0057 197.301 101.65H198.495C198.495 98.7061 200.749 96.3111 203.52 96.3111C206.293 96.3111 208.548 98.7061 208.548 101.65C208.548 102.242 208.457 102.811 208.289 103.341C207.795 104.912 206.634 106.158 205.165 106.697C204.735 106.857 204.28 106.956 203.807 106.983V108.253C204.357 108.227 204.891 108.124 205.397 107.954C207.416 107.274 208.991 105.529 209.536 103.341C209.67 102.801 209.742 102.235 209.742 101.65C209.742 98.0057 206.952 95.0423 203.52 95.0423Z" fill="#78ACEA"/>
<path d="M205.445 107.572C205.445 107.704 205.427 107.833 205.396 107.954C205.239 108.559 204.717 109.003 204.097 109.003C203.354 109.003 202.751 108.362 202.751 107.572C202.751 106.782 203.354 106.14 204.097 106.14C204.531 106.14 204.918 106.36 205.165 106.697C205.341 106.94 205.445 107.243 205.445 107.572Z" fill="#78ACEA"/>
<path d="M225.825 95.0423C222.395 95.0423 219.604 98.0057 219.604 101.65H220.797C220.797 98.7061 223.054 96.3111 225.825 96.3111C228.596 96.3111 230.852 98.7061 230.852 101.65C230.852 102.242 230.761 102.811 230.593 103.341C230.099 104.912 228.937 106.158 227.468 106.697C227.04 106.857 226.583 106.956 226.111 106.983V108.253C226.662 108.227 227.195 108.124 227.699 107.954C229.719 107.275 231.296 105.529 231.84 103.341C231.974 102.801 232.046 102.235 232.046 101.65C232.046 98.0057 229.256 95.0423 225.825 95.0423Z" fill="#78ACEA"/>
<path d="M227.748 107.572C227.748 107.704 227.73 107.833 227.699 107.954C227.542 108.559 227.022 109.003 226.401 109.003C225.658 109.003 225.053 108.362 225.053 107.572C225.053 106.782 225.658 106.14 226.401 106.14C226.836 106.14 227.222 106.36 227.468 106.697C227.644 106.94 227.748 107.243 227.748 107.572Z" fill="#78ACEA"/>
<path d="M248.131 95.0423C244.699 95.0423 241.908 98.0057 241.908 101.65H243.103C243.103 98.7061 245.357 96.3111 248.131 96.3111C250.902 96.3111 253.156 98.7061 253.156 101.65C253.156 102.242 253.065 102.811 252.897 103.341C252.403 104.912 251.242 106.158 249.773 106.697C249.344 106.857 248.888 106.956 248.415 106.983V108.253C248.968 108.227 249.499 108.124 250.004 107.954C252.022 107.275 253.599 105.529 254.144 103.341C254.278 102.801 254.35 102.235 254.35 101.65C254.35 98.0057 251.56 95.0423 248.131 95.0423Z" fill="#78ACEA"/>
<path d="M250.053 107.572C250.053 107.704 250.035 107.833 250.004 107.954C249.847 108.559 249.325 109.003 248.705 109.003C247.962 109.003 247.359 108.362 247.359 107.572C247.359 106.782 247.962 106.14 248.705 106.14C249.139 106.14 249.526 106.36 249.773 106.697C249.949 106.94 250.053 107.243 250.053 107.572Z" fill="#78ACEA"/>
<path d="M270.433 95.0423C267.003 95.0423 264.214 98.0057 264.214 101.65H265.407C265.407 98.7061 267.662 96.3111 270.433 96.3111C273.205 96.3111 275.461 98.7061 275.461 101.65C275.461 102.242 275.37 102.811 275.203 103.341C274.709 104.912 273.548 106.158 272.077 106.697C271.648 106.857 271.194 106.956 270.72 106.983V108.253C271.272 108.227 271.804 108.124 272.31 107.954C274.327 107.275 275.904 105.529 276.448 103.341C276.583 102.801 276.654 102.235 276.654 101.65C276.654 98.0057 273.864 95.0423 270.433 95.0423Z" fill="#78ACEA"/>
<path d="M272.357 107.572C272.357 107.704 272.341 107.833 272.31 107.954C272.151 108.559 271.63 109.003 271.011 109.003C270.267 109.003 269.664 108.362 269.664 107.572C269.664 106.782 270.267 106.14 271.011 106.14C271.445 106.14 271.83 106.36 272.077 106.697C272.254 106.94 272.357 107.243 272.357 107.572Z" fill="#78ACEA"/>
<path d="M216.233 167.163H208.979C208.141 167.163 207.323 166.435 207.16 165.543L205.761 157.836C205.6 156.945 206.153 156.216 206.993 156.216H214.246C215.085 156.216 215.903 156.945 216.064 157.836L217.464 165.543C217.626 166.435 217.071 167.163 216.233 167.163Z" fill="#AFCDFB"/>
<path d="M234.537 167.163H227.283C226.445 167.163 225.627 166.435 225.466 165.543L224.065 157.836C223.904 156.945 224.458 156.216 225.297 156.216H232.55C233.389 156.216 234.207 156.945 234.369 157.836L235.768 165.543C235.93 166.435 235.377 167.163 234.537 167.163Z" fill="#AFCDFB"/>
<path d="M252.842 167.163H245.589C244.749 167.163 243.931 166.435 243.77 165.543L242.371 157.836C242.208 156.945 242.762 156.216 243.601 156.216H250.854C251.693 156.216 252.511 156.945 252.673 157.836L254.072 165.543C254.234 166.435 253.681 167.163 252.842 167.163Z" fill="#78ACEA"/>
<path d="M161.321 167.163H154.067C153.229 167.163 152.41 166.435 152.248 165.543L150.849 157.836C150.687 156.945 151.241 156.216 152.079 156.216H159.333C160.172 156.216 160.991 156.945 161.152 157.836L162.551 165.543C162.714 166.435 162.159 167.163 161.321 167.163Z" fill="#AFCDFB"/>
<path d="M153.371 144.025H150.253C149.893 144.025 149.541 143.713 149.472 143.329L148.87 140.017C148.801 139.634 149.039 139.321 149.399 139.321H152.516C152.877 139.321 153.229 139.634 153.298 140.017L153.899 143.329C153.969 143.713 153.73 144.025 153.371 144.025Z" fill="#F99746"/>
<path d="M179.625 167.163H172.371C171.533 167.163 170.714 166.435 170.552 165.543L169.153 157.836C168.992 156.945 169.545 156.216 170.383 156.216H177.637C178.475 156.216 179.295 156.945 179.456 157.836L180.855 165.543C181.018 166.435 180.463 167.163 179.625 167.163Z" fill="#AFCDFB"/>
<path d="M197.929 167.163H190.675C189.837 167.163 189.019 166.435 188.856 165.543L187.457 157.836C187.296 156.945 187.849 156.216 188.687 156.216H195.941C196.781 156.216 197.599 156.945 197.76 157.836L199.159 165.543C199.321 166.435 198.767 167.163 197.929 167.163Z" fill="#AFCDFB"/>
<path d="M271.146 167.163H263.892C263.054 167.163 262.235 166.435 262.074 165.543L260.675 157.836C260.512 156.945 261.066 156.216 261.905 156.216H269.158C269.997 156.216 270.816 156.945 270.977 157.836L272.376 165.543C272.539 166.435 271.985 167.163 271.146 167.163Z" fill="#78ACEA"/>
<path d="M213.194 150.424H205.94C205.102 150.424 204.283 149.695 204.122 148.804L202.723 141.097C202.561 140.206 203.114 139.478 203.953 139.478H211.206C212.045 139.478 212.864 140.206 213.025 141.097L214.424 148.804C214.587 149.695 214.033 150.424 213.194 150.424Z" fill="#AFCDFB"/>
<path d="M231.498 150.424H224.244C223.406 150.424 222.588 149.695 222.426 148.804L221.026 141.097C220.865 140.206 221.418 139.478 222.257 139.478H229.51C230.35 139.478 231.168 140.206 231.329 141.097L232.73 148.804C232.891 149.695 232.337 150.424 231.498 150.424Z" fill="#AFCDFB"/>
<path d="M249.802 150.424H242.549C241.71 150.424 240.892 149.695 240.731 148.804L239.331 141.097C239.169 140.206 239.724 139.478 240.562 139.478H247.816C248.654 139.478 249.472 140.206 249.635 141.097L251.034 148.804C251.195 149.695 250.641 150.424 249.802 150.424Z" fill="#78ACEA"/>
<path d="M268.108 150.424H260.854C260.014 150.424 259.196 149.695 259.035 148.804L257.635 141.097C257.473 140.206 258.028 139.478 258.866 139.478H266.12C266.958 139.478 267.776 140.206 267.939 141.097L269.338 148.804C269.499 149.695 268.946 150.424 268.108 150.424Z" fill="#78ACEA"/>
<path d="M219.455 184.906H212.201C211.362 184.906 210.543 184.177 210.382 183.286L208.983 175.579C208.82 174.688 209.375 173.959 210.213 173.959H217.467C218.305 173.959 219.124 174.688 219.286 175.579L220.685 183.286C220.846 184.177 220.293 184.906 219.455 184.906Z" fill="#AFCDFB"/>
<path d="M237.759 184.906H230.505C229.667 184.906 228.847 184.177 228.686 183.286L227.287 175.579C227.125 174.688 227.679 173.959 228.517 173.959H235.771C236.609 173.959 237.429 174.688 237.59 175.579L238.989 183.286C239.151 184.177 238.597 184.906 237.759 184.906Z" fill="#AFCDFB"/>
<path d="M256.063 184.906H248.809C247.97 184.906 247.153 184.177 246.99 183.286L245.591 175.579C245.43 174.688 245.983 173.959 246.821 173.959H254.075C254.913 173.959 255.732 174.688 255.894 175.579L257.293 183.286C257.455 184.177 256.901 184.906 256.063 184.906Z" fill="#78ACEA"/>
<path d="M164.541 184.906H157.288C156.449 184.906 155.631 184.177 155.469 183.286L154.07 175.579C153.908 174.688 154.461 173.959 155.301 173.959H162.555C163.393 173.959 164.211 174.688 164.372 175.579L165.773 183.286C165.934 184.177 165.38 184.906 164.541 184.906Z" fill="#AFCDFB"/>
<path d="M182.846 184.906H175.592C174.753 184.906 173.935 184.177 173.773 183.286L172.374 175.579C172.213 174.688 172.767 173.959 173.605 173.959H180.859C181.697 173.959 182.515 174.688 182.678 175.579L184.077 183.286C184.238 184.177 183.685 184.906 182.846 184.906Z" fill="#AFCDFB"/>
<path d="M201.151 184.906H193.897C193.057 184.906 192.239 184.177 192.078 183.286L190.678 175.579C190.517 174.688 191.071 173.959 191.909 173.959H199.163C200.001 173.959 200.819 174.688 200.982 175.579L202.381 183.286C202.542 184.177 201.989 184.906 201.151 184.906Z" fill="#AFCDFB"/>
<path d="M274.367 184.906H267.113C266.275 184.906 265.457 184.177 265.294 183.286L263.895 175.579C263.734 174.688 264.287 173.959 265.125 173.959H272.38C273.219 173.959 274.037 174.688 274.198 175.579L275.598 183.286C275.759 184.177 275.205 184.906 274.367 184.906Z" fill="#78ACEA"/>
<path d="M222.675 202.647H215.421C214.583 202.647 213.765 201.918 213.603 201.027L212.204 193.32C212.042 192.429 212.595 191.7 213.434 191.7H220.689C221.527 191.7 222.345 192.429 222.506 193.32L223.907 201.027C224.068 201.918 223.514 202.647 222.675 202.647Z" fill="#AFCDFB"/>
<path d="M240.979 202.647H233.725C232.887 202.647 232.069 201.918 231.906 201.027L230.507 193.32C230.346 192.429 230.899 191.7 231.739 191.7H238.993C239.831 191.7 240.649 192.429 240.81 193.32L242.21 201.027C242.372 201.918 241.818 202.647 240.979 202.647Z" fill="#AFCDFB"/>
<path d="M259.283 202.647H252.03C251.191 202.647 250.373 201.918 250.212 201.027L248.812 193.32C248.65 192.429 249.205 191.7 250.043 191.7H257.297C258.135 191.7 258.953 192.429 259.116 193.32L260.515 201.027C260.676 201.918 260.123 202.647 259.283 202.647Z" fill="#78ACEA"/>
<path d="M167.763 202.647H160.509C159.67 202.647 158.852 201.918 158.691 201.027L157.291 193.32C157.129 192.429 157.683 191.7 158.522 191.7H165.775C166.614 191.7 167.432 192.429 167.594 193.32L168.993 201.027C169.155 201.918 168.602 202.647 167.763 202.647Z" fill="#AFCDFB"/>
<path d="M186.067 202.647H178.813C177.975 202.647 177.156 201.918 176.994 201.027L175.595 193.32C175.433 192.429 175.987 191.7 176.826 191.7H184.079C184.918 191.7 185.737 192.429 185.898 193.32L187.297 201.027C187.46 201.918 186.906 202.647 186.067 202.647Z" fill="#F99746"/>
<path d="M204.371 202.647H197.117C196.279 202.647 195.46 201.918 195.299 201.027L193.9 193.32C193.738 192.429 194.291 191.7 195.13 191.7H202.383C203.222 191.7 204.041 192.429 204.202 193.32L205.601 201.027C205.764 201.918 205.21 202.647 204.371 202.647Z" fill="#AFCDFB"/>
<path d="M277.588 202.647H270.335C269.496 202.647 268.677 201.918 268.516 201.027L267.117 193.32C266.954 192.429 267.508 191.7 268.347 191.7H275.601C276.439 191.7 277.258 192.429 277.419 193.32L278.818 201.027C278.98 201.918 278.427 202.647 277.588 202.647Z" fill="#78ACEA"/>
<path d="M225.714 219.387H218.46C217.622 219.387 216.804 218.658 216.641 217.767L215.242 210.06C215.081 209.168 215.635 208.439 216.474 208.439H223.727C224.566 208.439 225.384 209.168 225.546 210.06L226.945 217.767C227.107 218.658 226.554 219.387 225.714 219.387Z" fill="#AFCDFB"/>
<path d="M244.019 219.387H236.765C235.926 219.387 235.108 218.658 234.947 217.767L233.546 210.06C233.385 209.168 233.939 208.439 234.778 208.439H242.031C242.87 208.439 243.688 209.168 243.85 210.06L245.249 217.767C245.411 218.658 244.858 219.387 244.019 219.387Z" fill="#AFCDFB"/>
<path d="M262.323 219.387H255.069C254.231 219.387 253.412 218.658 253.251 217.767L251.852 210.06C251.689 209.168 252.243 208.439 253.082 208.439H260.335C261.174 208.439 261.993 209.168 262.154 210.06L263.553 217.767C263.715 218.658 263.162 219.387 262.323 219.387Z" fill="#78ACEA"/>
<path d="M170.802 219.387H163.548C162.71 219.387 161.891 218.658 161.729 217.767L160.33 210.06C160.168 209.168 160.722 208.439 161.56 208.439H168.814C169.653 208.439 170.472 209.168 170.633 210.06L172.032 217.767C172.195 218.658 171.64 219.387 170.802 219.387Z" fill="#AFCDFB"/>
<path d="M189.106 219.387H181.852C181.014 219.387 180.194 218.658 180.033 217.767L178.634 210.06C178.473 209.168 179.026 208.439 179.864 208.439H187.118C187.958 208.439 188.776 209.168 188.937 210.06L190.336 217.767C190.498 218.658 189.944 219.387 189.106 219.387Z" fill="#AFCDFB"/>
<path d="M207.41 219.387H200.156C199.318 219.387 198.5 218.658 198.337 217.767L196.938 210.06C196.777 209.168 197.33 208.439 198.169 208.439H205.423C206.262 208.439 207.08 209.168 207.241 210.06L208.641 217.767C208.802 218.658 208.248 219.387 207.41 219.387Z" fill="#AFCDFB"/>
<path d="M175.356 140.983H156.14C155.855 140.983 155.624 140.737 155.624 140.436C155.624 140.136 155.855 139.89 156.14 139.89H175.356C175.639 139.89 175.871 140.136 175.871 140.436C175.871 140.737 175.639 140.983 175.356 140.983Z" fill="#AFCDFB"/>
<path d="M175.941 143.457H156.723C156.44 143.457 156.209 143.211 156.209 142.909C156.209 142.608 156.44 142.362 156.723 142.362H175.941C176.224 142.362 176.456 142.608 176.456 142.909C176.456 143.211 176.224 143.457 175.941 143.457Z" fill="#AFCDFB"/>
<path d="M154.746 122.57H148.151C147.611 122.57 147.169 122.099 147.169 121.526C147.169 120.953 147.611 120.482 148.151 120.482H154.746C155.286 120.482 155.727 120.953 155.727 121.526C155.727 122.099 155.286 122.57 154.746 122.57Z" fill="white"/>
<path d="M172.841 122.57H166.246C165.706 122.57 165.263 122.099 165.263 121.526C165.263 120.953 165.706 120.482 166.246 120.482H172.841C173.381 120.482 173.823 120.953 173.823 121.526C173.823 122.099 173.381 122.57 172.841 122.57Z" fill="white"/>
<path d="M190.936 122.57H184.342C183.802 122.57 183.359 122.099 183.359 121.526C183.359 120.953 183.802 120.482 184.342 120.482H190.936C191.476 120.482 191.918 120.953 191.918 121.526C191.918 122.099 191.476 122.57 190.936 122.57Z" fill="white"/>
<path d="M209.03 122.57H202.436C201.896 122.57 201.454 122.099 201.454 121.526C201.454 120.953 201.896 120.482 202.436 120.482H209.03C209.571 120.482 210.013 120.953 210.013 121.526C210.013 122.099 209.571 122.57 209.03 122.57Z" fill="white"/>
<path d="M227.126 122.57H220.531C219.991 122.57 219.549 122.099 219.549 121.526C219.549 120.953 219.991 120.482 220.531 120.482H227.126C227.666 120.482 228.107 120.953 228.107 121.526C228.107 122.099 227.666 122.57 227.126 122.57Z" fill="white"/>
<path d="M245.221 122.57H238.627C238.086 122.57 237.644 122.099 237.644 121.526C237.644 120.953 238.086 120.482 238.627 120.482H245.221C245.761 120.482 246.203 120.953 246.203 121.526C246.203 122.099 245.761 122.57 245.221 122.57Z" fill="white"/>
<path d="M263.316 122.57H256.722C256.182 122.57 255.739 122.099 255.739 121.526C255.739 120.953 256.182 120.482 256.722 120.482H263.316C263.857 120.482 264.298 120.953 264.298 121.526C264.298 122.099 263.857 122.57 263.316 122.57Z" fill="white"/>
<path d="M221.608 150.576C220.152 150.576 219.091 150.086 218.514 149.132C217.406 147.304 218.261 144.742 221.056 141.518C223.098 139.162 225.482 137.296 225.505 137.277C225.599 137.204 225.731 137.225 225.8 137.325C225.869 137.424 225.848 137.564 225.755 137.637C225.662 137.711 216.472 144.939 218.867 148.89C219.626 150.141 221.251 150.224 222.481 150.073C224.758 149.793 227.726 148.49 230.422 146.588C233.212 144.618 235.178 142.4 235.815 140.499C236.233 139.253 236.104 138.37 235.431 137.875C234.561 137.236 232.745 137.235 230.573 137.874C228.492 138.485 226.398 139.585 225.107 140.745C225.019 140.825 224.886 140.813 224.81 140.719C224.735 140.625 224.746 140.484 224.835 140.404C226.168 139.204 228.324 138.07 230.46 137.443C232.786 136.759 234.684 136.783 235.67 137.507C236.254 137.937 236.821 138.83 236.211 140.65C235.544 142.64 233.519 144.939 230.655 146.96C227.907 148.9 224.869 150.23 222.529 150.517C222.207 150.556 221.9 150.576 221.608 150.576Z" fill="#C65447"/>
<path d="M259.685 137.871L258.936 136.371C258.936 136.371 259.308 133.696 256.155 132.006C256.155 132.006 255.002 131.507 254.351 132.505C253.752 133.426 255.493 133.26 255.4 134.833C255.306 136.407 256.009 137.33 256.988 137.843L257.797 138.838L259.685 137.871Z" fill="#FFB27D"/>
<path d="M289.486 134.284C289.486 134.284 286.779 148.406 271.876 153.02C267.224 154.461 256.655 138.188 256.655 138.188C256.655 138.188 257.026 136.688 259.355 137.032C259.355 137.032 269.645 144.27 270.94 145.058C272.09 145.755 279.649 136.088 283.096 134.528C286.542 132.97 289.486 134.284 289.486 134.284Z" fill="#233862"/>
<path d="M262.133 130.839L262.729 134.266L246.509 137.457L245.911 134.031L262.133 130.839Z" fill="#C65447"/>
<path d="M242.438 136.486L246.509 137.457L245.911 134.031L242.438 136.486Z" fill="#FFB27D"/>
<path d="M264.216 131.604L264.404 132.688C264.521 133.355 264.106 133.994 263.479 134.118L262.729 134.266L262.132 130.839L262.948 130.678C263.539 130.563 264.106 130.978 264.216 131.604Z" fill="#FFB27D"/>
<path d="M307.278 223.06C307.278 223.06 309.126 224.853 308.765 226.127C308.406 227.402 306.737 228.25 306.511 229.807C306.286 231.363 305.384 232.213 304.572 232.213C303.761 232.213 300.703 232.213 300.703 232.213C300.703 232.213 300.105 231.117 301.549 230.787C302.991 230.457 303.535 228.627 303.446 226.93C303.355 225.231 303.58 222.967 303.58 222.967L306.647 222.212L307.278 223.06Z" fill="#233862"/>
<path d="M284.598 227.698C284.598 227.698 284.929 231.777 284.118 232.201L273.73 232.179C273.73 232.179 273.73 230.905 275.398 230.622C277.066 230.339 279.997 229.301 280.494 226.989C280.989 224.679 284.598 227.698 284.598 227.698Z" fill="#233862"/>
<path d="M275.827 170.069C275.827 170.069 276.375 177.22 277.019 185.815C277.894 197.494 278.947 211.836 279.051 214.554C279.231 219.271 279.954 226.819 279.954 226.819C279.954 226.819 281.667 228.612 285.093 227.857C285.093 227.857 288.148 217.083 289.02 205.684C289.034 205.496 289.048 205.308 289.061 205.119C289.873 193.514 291.135 169.078 291.135 169.078L275.827 170.069Z" fill="#F99746"/>
<path d="M275.827 170.069C275.827 170.069 276.375 177.22 277.019 185.815L289.02 205.684C289.034 205.496 289.048 205.308 289.061 205.119C289.873 193.514 291.135 169.078 291.135 169.078L275.827 170.069Z" fill="#ED7D2B"/>
<path d="M278.33 170.918C278.33 170.918 288.205 196.816 294.697 208.987C301.19 221.159 303.219 224.555 303.219 224.555C303.219 224.555 306.94 222.998 307.278 221.937C307.278 221.937 304.795 198.44 300.447 192.712C297.989 189.477 295.104 179.763 294.968 176.366C294.833 172.97 294.089 166.248 294.089 166.248L278.33 170.918Z" fill="#F99746"/>
<path d="M291.322 131.006C291.322 131.006 284.64 134.432 280.789 133.16C280.789 133.16 281.737 131.89 283.396 130.944C283.263 130.122 283.159 129.409 283.1 128.806C282.936 127.41 282.936 126.62 282.936 126.62L285.514 124.466L287.959 122.404C287.767 128.2 291.322 131.006 291.322 131.006Z" fill="#FFB27D"/>
<path d="M275.406 170.66C275.524 170.768 275.657 170.83 275.807 170.83C277.258 170.798 281.481 171.65 285.05 171.262C288.072 170.952 290.739 170.023 293.599 168.692C293.984 168.505 294.858 168.009 294.843 167.575C294.828 167.079 294.784 166.382 294.725 165.482C294.605 163.711 294.437 161.197 294.383 158.216C294.344 156.006 294.366 153.54 294.517 150.927C294.526 150.752 294.534 150.575 294.541 150.398C294.584 149.441 294.605 148.477 294.605 147.534C294.622 144.496 294.414 141.598 293.999 139.01C293.272 134.515 291.909 130.997 289.896 129.431C289.628 129.214 287.968 130.065 286.428 130.856C285.02 131.585 283.614 131.663 282.281 131.384L280.947 132.623C279.331 134.188 277.553 136.343 276.768 139.599C276.118 142.358 275.733 147.348 275.524 152.525C275.422 154.881 275.347 157.236 275.318 159.483V159.561C275.301 159.793 275.301 160.027 275.301 160.26C275.228 166.01 275.301 170.582 275.406 170.66Z" fill="#2B478B"/>
<path d="M288.004 124.621C288.004 124.621 286.314 127.89 283.1 128.806C282.936 127.41 282.936 126.62 282.936 126.62L285.514 124.466L288.004 124.621Z" fill="#ED985F"/>
<path d="M281.761 126.525C281.761 126.525 288.136 127.633 288.733 123.47C289.333 119.306 290.557 116.646 286.514 115.762C282.469 114.879 281.448 116.343 280.925 117.682C280.403 119.02 280.119 126.13 281.761 126.525Z" fill="#FFB27D"/>
<path d="M291.05 115.264C291.108 115.193 291.242 115.136 291.539 115.119C291.539 115.119 291.301 114.962 290.984 114.953C290.922 114.515 290.702 113.738 289.992 113.549C289.992 113.549 290.373 113.765 290.423 114.232C289.6 113.333 287.836 112.679 282.95 113.089C276.513 113.629 278.634 118.009 279.469 118.531C280.302 119.053 282.4 117.621 283.953 117.753C285.505 117.883 285.801 120.268 286.327 120.594C286.854 120.922 286.647 120.344 287.36 120.001C288.073 119.658 288.141 120.914 287.935 121.73C287.729 122.546 288.708 123.621 288.708 123.621C288.708 123.621 288.708 123.621 289.697 122.488C290.687 121.357 291.62 116.56 291.171 115.537C291.131 115.448 291.091 115.355 291.05 115.264Z" fill="#2C3A64"/>
<path d="M258.922 136.299C258.922 136.299 259.142 135.379 258.541 134.965C257.94 134.552 257.387 133.427 257.134 133.579C256.609 133.895 257.421 134.877 257.272 136.101C257.221 136.53 258.161 137.654 258.922 136.299Z" fill="#FFB27D"/>
<path d="M294.383 158.216C294.344 156.006 294.365 153.54 294.516 150.927C294.525 150.752 294.534 150.575 294.541 150.398C293.935 147.209 293.019 144.379 291.67 144.286C291.67 144.286 287.651 150.998 294.383 158.216Z" fill="#233862"/>
<path d="M299.699 169.788C299.699 169.788 299.364 173.249 298.997 173.903C298.629 174.557 297.064 176.649 296.398 177.06C295.731 177.47 296.805 174.303 296.668 173.687C296.533 173.071 296.12 174.812 295.826 174.852C295.533 174.893 295.608 173.327 295.598 172.757C295.587 172.187 297.027 170.779 297.535 169.566C298.043 168.352 299.699 169.788 299.699 169.788Z" fill="#FFB27D"/>
<path d="M289.892 129.396C289.892 129.396 293.925 131.425 295.859 134.545C298.858 139.384 302.335 157.017 302.399 158.651C302.463 160.283 299.862 171.812 299.862 171.812C299.862 171.812 297.222 171.628 296.541 170.212C296.541 170.212 297.069 158.367 296.735 157.605C296.401 156.843 285.734 141.716 286.934 138.487C288.133 135.26 289.892 129.396 289.892 129.396Z" fill="#2B478B"/>
<path d="M244.524 135.011L244.736 137.034L242.438 136.486L244.524 135.011Z" fill="#C65447"/>
<path d="M331.791 232.148H320.169C319.547 231.586 320.6 230.312 321.701 230.226C322.18 230.187 322.784 230.294 323.475 230.449C323.635 228.192 324.548 218.046 327.991 218.453C331.861 218.91 327.991 222.922 326.897 225.296C326.086 227.056 325.231 229.579 324.84 230.769C325.155 230.842 325.48 230.913 325.813 230.977C326.325 229.304 328.234 223.675 330.661 224.003C333.51 224.386 332.366 226.644 330.345 227.984C328.864 228.968 327.044 230.369 326.179 231.045C326.912 231.173 327.676 231.258 328.452 231.239C330.442 231.189 331.415 231.812 331.791 232.148Z" fill="#82B378"/>
<path d="M66.4858 231.56C65.8699 230.532 64.0163 227.864 61.5473 228.218C58.8574 228.602 64.5183 230.487 66.2514 231.569C65.8665 231.574 65.5357 231.541 65.2926 231.449C64.1339 231.011 62.1495 231.853 61.5152 232.148H72.5457C72.4694 231.868 72.2708 231.409 71.7571 231.076C71.576 230.958 71.2118 230.942 70.7418 230.98C71.3977 230.158 71.8532 227.533 70.0273 228.209C68.6934 228.703 68.6971 230.306 68.8281 231.254C68.5443 231.302 68.2565 231.35 67.9721 231.393C67.423 228.419 65.4805 219.704 61.5435 219.471C57.5522 219.236 64.928 228.51 67.384 231.476C67.0693 231.517 66.7664 231.547 66.4858 231.56Z" fill="#82B378"/>
<path d="M368.376 232.999H23.0986C22.8829 232.999 22.7065 232.812 22.7065 232.583V232.44C22.7065 232.212 22.8829 232.024 23.0986 232.024H368.376C368.591 232.024 368.768 232.212 368.768 232.44V232.583C368.768 232.812 368.591 232.999 368.376 232.999Z" fill="#2E3552"/>
</svg>
