<svg width="40" height="35" viewBox="0 0 40 35" fill="none" xmlns="http://www.w3.org/2000/svg">
<rect width="40" height="34.6478" fill="#E5E5E5"/>
<path d="M0 0V34.6478H40V0H0ZM39.325 33.8166H0.675V0.831155H39.325L39.325 33.8166Z" fill="#EFF3F5"/>
<rect x="2.89276" y="2.89276" width="34.2145" height="28.8623" fill="#5ABA3A"/>
<path d="M6.83667 22.156H2.89276V21.3656H6.04626V13.2822H2.89276V12.4918H6.83667V22.156Z" fill="#FDFEFE"/>
<path d="M37.1072 22.156H33.1633V12.4918H37.1072V13.2822H33.9537V21.3656H37.1072V22.156Z" fill="#FDFEFE"/>
<path d="M12.3451 26.8984H2.89276V26.108H11.5547V8.53968H2.89276V7.74927H12.3451V26.8984Z" fill="#FDFEFE"/>
<path d="M37.1073 26.8984H27.6549V7.74927H37.1073V8.53968H28.4453V26.108H37.1073V26.8984Z" fill="#FDFEFE"/>
<rect x="19.6079" y="2.89276" width="1" height="28.8704" fill="#FDFEFE"/>
<path d="M20 22.8649C16.9443 22.8649 14.459 20.3796 14.459 17.3239C14.459 14.2682 16.9443 11.7828 20 11.7828C23.0557 11.7828 25.541 14.2682 25.541 17.3239C25.541 20.3796 23.0557 22.8649 20 22.8649ZM20 12.5732C17.3843 12.5732 15.2494 14.7 15.2494 17.3239C15.2494 19.9396 17.3761 22.0745 20 22.0745C22.6157 22.0745 24.7506 19.9477 24.7506 17.3239C24.7506 14.7082 22.6157 12.5732 20 12.5732Z" fill="#FDFEFE"/>
<path d="M4.10139 2.89276C4.10139 3.79725 3.56021 4.53877 2.89276 4.53877V5.32919C3.87891 5.32919 4.68466 4.23728 4.68466 2.89276L4.10139 2.89276ZM2.89276 29.3267V30.1172C3.56021 30.1172 4.10139 30.8505 4.10139 31.755H4.68466C4.68466 30.4187 3.87891 29.3267 2.89276 29.3267ZM35.3154 31.755H35.8986C35.8986 30.8505 36.4398 30.1172 37.1073 30.1172V29.3267C36.1211 29.3267 35.3154 30.4187 35.3154 31.755ZM35.8986 2.89276H35.3154C35.3154 4.23728 36.1211 5.32919 37.1073 5.32919V4.53878C36.4458 4.53877 35.8986 3.78911 35.8986 2.89276Z" fill="#FDFEFE"/>
</svg>
