<svg width="34" height="33" viewBox="0 0 34 33" fill="none" xmlns="http://www.w3.org/2000/svg">
<path d="M31.5209 10.6581C31.4892 10.5764 31.4569 10.4953 31.4239 10.4148C30.8785 9.09396 30.1536 7.85458 29.2696 6.73173L29.2406 6.69547C26.3241 2.99821 21.8856 0.8265 17.1767 0.792727L16.7033 0.792725C15.0082 0.828365 13.3303 1.14193 11.7367 1.72092L11.707 1.73213C5.58049 3.97791 1.50748 9.80954 1.50809 16.3347C1.50809 16.5055 1.50809 16.6762 1.51666 16.8456C1.60651 19.7577 2.51765 22.585 4.14501 25.0016C4.14586 25.0035 4.14697 25.0053 4.1483 25.0069C6.1862 28.0358 9.22345 30.2524 12.7295 31.2696L12.74 31.2729C15.5504 32.0778 18.5301 32.0789 21.341 31.2762L21.3654 31.2696C21.5315 31.2217 21.6966 31.1711 21.8605 31.118C22.202 31.0068 22.5382 30.8837 22.8691 30.7488C22.9284 30.7251 22.9871 30.7007 23.0464 30.6756L23.2785 30.5761C23.4934 30.4811 23.7057 30.3818 23.9153 30.2781L24.0472 30.2122C29.1236 27.6539 32.3972 22.5272 32.5822 16.8456C32.5881 16.6762 32.5908 16.5055 32.5908 16.3347C32.5932 14.3922 32.2302 12.4665 31.5209 10.6581ZM16.5247 5.81276L16.553 5.8332L16.5385 11.0141L16.4963 11.0444L16.5247 5.81276ZM10.5204 24.4433H10.5026L13.1712 21.1979L13.1943 21.2691L10.5204 24.4433Z" fill="#C8C5CC"/>
<path d="M16.942 11.1017L11.6259 14.9635L13.6564 21.213H20.2276L22.258 14.9635L16.942 11.1017Z" fill="#3C3B41"/>
<path d="M22.2653 1.42489L16.9552 5.28271L11.6451 1.42489C15.0762 0.182914 18.8341 0.182915 22.2653 1.42489ZM6.81027 12.6865L1.48106 16.5582L1.46589 16.547C1.45996 16.3775 1.45733 16.2068 1.45733 16.0361C1.45185 12.5525 2.62204 9.16894 4.77853 6.43306L6.81027 12.6865ZM15.3222 19.7811L14.663 20.5847L14.1462 21.213L10.8626 25.2066L10.5079 25.6377L10.4341 25.7267C10.2702 25.9452 9.96032 25.9895 9.74187 25.8256C9.52342 25.6618 9.47915 25.3519 9.64298 25.1334C9.65317 25.1181 9.66417 25.1034 9.67595 25.0893L10.0095 24.6838L10.4525 24.1446H10.4736L13.1474 20.9704L13.1244 20.8992L13.4342 20.5221L13.8693 19.9947L14.5674 19.1457C14.7435 18.9369 15.0554 18.9103 15.2642 19.0863C15.473 19.2624 15.4996 19.5743 15.3236 19.7831L15.3222 19.7811ZM23.9575 25.6008C23.8684 25.6769 23.7549 25.7185 23.6378 25.7182C23.5864 25.7181 23.5352 25.7104 23.4862 25.6951C23.3984 25.6668 23.3203 25.6145 23.2607 25.5441L23.0629 25.316L22.6984 24.8895L22.7412 24.7517L20.0384 21.5736H19.863L19.5545 21.213L19.2506 20.8484C19.1869 20.774 19.1472 20.6821 19.1365 20.5847C19.1121 20.3687 19.2319 20.1621 19.4315 20.0759C19.6311 19.9898 19.8636 20.0443 20.0041 20.2103L20.0265 20.236L20.4023 20.6757L23.8164 24.672L24.0142 24.9034C24.0701 24.9688 24.1077 25.048 24.123 25.1328C24.1561 25.3072 24.0929 25.486 23.9575 25.6008ZM28.4455 12.7663L28.2557 12.85L27.7665 13.0695L27.2088 13.3154L27.1284 13.2568L22.7043 15.1969L22.6634 15.3221L22.0556 15.5904L21.9897 15.6201C21.9274 15.6477 21.8601 15.6621 21.7919 15.6623C21.5917 15.6626 21.411 15.5422 21.3343 15.3572C21.2576 15.1722 21.3001 14.9592 21.4419 14.8178C21.4853 14.7743 21.5365 14.7394 21.5928 14.715L21.7906 14.6273L27.3117 12.1881L27.9663 11.8987L28.0487 11.8625C28.212 11.7819 28.4064 11.7976 28.5547 11.9033C28.703 12.0091 28.7811 12.1878 28.758 12.3685C28.7349 12.5492 28.6143 12.7025 28.4442 12.7676L28.4455 12.7663Z" fill="#3C3B41"/>
<path d="M12.8561 15.5087C12.7915 15.655 12.6601 15.7609 12.5034 15.7928C12.4705 15.8 12.4369 15.8036 12.4032 15.8034C12.335 15.8033 12.2677 15.7889 12.2054 15.7612L11.8329 15.5964L11.3306 15.3729L11.2719 15.1929L6.87421 13.2535L6.74764 13.3458L5.70211 12.8843L5.0231 12.5843C4.7733 12.4741 4.66025 12.1821 4.77058 11.9324C4.88091 11.6826 5.17283 11.5695 5.42261 11.6798L6.05677 11.9594L6.66393 12.2277L12.09 14.628L12.5271 14.8211L12.6056 14.8561C12.8549 14.9671 12.967 15.2593 12.8561 15.5087ZM17.472 4.16137V4.9096L17.4404 11.4604V11.4874C17.4389 11.7596 17.2182 11.9798 16.9459 11.9805C16.9463 11.9759 16.9463 11.9713 16.9459 11.9667C16.8274 11.9674 16.7125 11.926 16.6216 11.85C16.5133 11.76 16.4513 11.6261 16.4528 11.4854V10.7477L16.495 10.7174L16.5069 5.53652L16.4785 5.51608V4.93926L16.4818 4.29783V4.15873C16.4818 3.88567 16.7032 3.66431 16.9763 3.66431C17.2493 3.66431 17.4707 3.88567 17.4707 4.15873L17.472 4.16137ZM29.8767 24.7175C27.8388 27.7463 24.8016 29.963 21.2955 30.9802L21.2395 30.9393L23.2752 24.6766H29.8622L29.8767 24.7175ZM32.5202 15.98C32.5202 16.1508 32.5202 16.3215 32.5117 16.4909L32.4965 16.5022L27.1673 12.6305L29.199 6.37704C31.3555 9.11292 32.5257 12.4964 32.5202 15.98ZM12.7269 30.9492L12.6708 30.99C9.16477 29.9729 6.12752 27.7562 4.08963 24.7274L4.10413 24.6825H10.6912L12.7269 30.9492Z" fill="#3C3B41"/>
<path d="M29.6117 6.12984C27.7634 3.77483 25.2928 1.98426 22.4795 0.960811C18.9397 -0.320271 15.0629 -0.320271 11.5231 0.960813H11.5192C8.70745 1.98423 6.2381 3.77379 4.39025 6.1272C2.15826 8.94652 0.949834 12.4402 0.962904 16.0361C0.962908 16.218 0.962908 16.396 0.971478 16.5635C1.19748 23.5137 5.87729 29.5262 12.5594 31.4513C19.2415 33.3764 26.4029 30.7754 30.292 25.0108C30.3587 24.9529 30.4084 24.8779 30.4358 24.794C32.0389 22.3403 32.9359 19.4929 33.0285 16.5635C33.0338 16.3954 33.0371 16.2174 33.0371 16.0361C33.0501 12.4414 31.8424 8.94871 29.6117 6.12984ZM28.6684 6.53394L26.7876 12.3226L22.3628 14.2634L17.4819 10.7161L17.4938 5.53521L22.3859 1.98064C24.8418 2.92364 27.0078 4.49351 28.6684 6.53394ZM21.7214 15.0189L21.5362 15.5885L20.0265 20.236L19.9131 20.5848H14.0605L13.868 19.9915L12.5034 15.7909L12.2535 15.0189L12.5258 14.8211L16.6176 11.848L16.9881 11.579L17.3111 11.8137L21.4419 14.8145L21.7214 15.0189ZM17 0.987842C18.4341 0.98637 19.8611 1.19016 21.2375 1.59302L17.4713 4.32948L17 4.67162L16.4825 4.29586L12.7625 1.59302C14.1389 1.19016 15.5658 0.98637 17 0.987842ZM11.6141 1.98064L16.4766 5.51411L16.5049 5.53455L16.493 10.7154L16.4509 10.7458L11.6101 14.2628L7.21241 12.3233L5.33162 6.53394C6.99202 4.49338 9.15809 2.92348 11.6141 1.98064ZM4.60647 7.49972L6.05678 11.9594L6.23147 12.498L5.70409 12.883L1.95834 15.6003C2.03126 12.6995 2.95183 9.88348 4.60647 7.49972ZM1.96955 16.8127L6.74172 13.3458L6.86829 13.2535L11.266 15.1929L11.3247 15.3729L13.1204 20.8992L13.1435 20.9704L10.4736 24.1446H4.32168C2.91211 21.9474 2.10127 19.4199 1.96955 16.8127ZM5.01322 25.1335H10.3418L10.5053 25.6378L11.9984 30.2326C9.22243 29.2507 6.79432 27.4782 5.01322 25.1335ZM20.9303 30.5662C18.3847 31.2496 15.7048 31.2571 13.1554 30.5879L11.2574 24.7478L13.9313 21.5736H20.0437L22.7465 24.7518L22.7036 24.8895L20.9303 30.5662ZM22.0761 30.2049L23.4835 25.6951L23.6589 25.1335H28.9841C27.22 27.4561 24.8205 29.2176 22.0761 30.2049ZM29.6783 24.1446H23.5264L20.8275 20.9691L22.7043 15.1936L27.1284 13.2535L32.0278 16.8133C31.8965 19.42 31.0866 21.9472 29.6783 24.1446ZM28.2557 12.85L27.7712 12.498L27.9689 11.8974L29.3935 7.49972C31.0477 9.88363 31.9678 12.6996 32.0403 15.6003L28.2557 12.85Z" fill="#002210"/>
</svg>
