<svg width="345" height="341" viewBox="0 0 345 341" fill="none" xmlns="http://www.w3.org/2000/svg">
<path d="M310.431 271.77H287.578V271.942H310.431V271.77Z" fill="#EBEBEB"/>
<path d="M228.542 273.625H222.546V273.797H228.542V273.625Z" fill="#EBEBEB"/>
<path d="M286.888 265.441H273.647V265.613H286.888V265.441Z" fill="#EBEBEB"/>
<path d="M65.9985 266.587H36.1974V266.759H65.9985V266.587Z" fill="#EBEBEB"/>
<path d="M76.5141 266.587H72.1464V266.759H76.5141V266.587Z" fill="#EBEBEB"/>
<path d="M155.353 269.465H90.7143V269.636H155.353V269.465Z" fill="#EBEBEB"/>
<path d="M164.496 230.38H31.257C30.2121 230.38 29.21 229.969 28.4711 229.239C27.7322 228.509 27.3171 227.518 27.3171 226.485V41.3701C27.3262 40.3432 27.7453 39.3615 28.4832 38.6385C29.2211 37.9156 30.218 37.51 31.257 37.51H164.496C165.013 37.51 165.526 37.6107 166.004 37.8064C166.482 38.0021 166.916 38.289 167.282 38.6506C167.648 39.0122 167.938 39.4415 168.136 39.914C168.334 40.3864 168.436 40.8928 168.436 41.4042V226.485C168.436 226.997 168.334 227.503 168.136 227.976C167.938 228.448 167.648 228.877 167.282 229.239C166.916 229.601 166.482 229.887 166.004 230.083C165.526 230.279 165.013 230.38 164.496 230.38ZM31.257 37.6464C30.2584 37.6482 29.3012 38.0411 28.5951 38.7391C27.8889 39.437 27.4914 40.3831 27.4896 41.3701V226.485C27.4914 227.472 27.8889 228.419 28.5951 229.116C29.3012 229.814 30.2584 230.207 31.257 230.209H164.496C165.495 230.207 166.452 229.814 167.158 229.116C167.864 228.419 168.262 227.472 168.263 226.485V41.3701C168.262 40.3831 167.864 39.437 167.158 38.7391C166.452 38.0411 165.495 37.6482 164.496 37.6464H31.257Z" fill="#EBEBEB"/>
<path d="M313.743 230.38H180.504C179.459 230.38 178.457 229.969 177.718 229.239C176.979 228.509 176.564 227.518 176.564 226.485V41.3701C176.573 40.3432 176.992 39.3615 177.73 38.6385C178.468 37.9156 179.465 37.51 180.504 37.51H313.743C314.788 37.51 315.79 37.9203 316.529 38.6506C317.268 39.3809 317.683 40.3714 317.683 41.4042V226.485C317.683 227.518 317.268 228.509 316.529 229.239C315.79 229.969 314.788 230.38 313.743 230.38ZM180.504 37.6464C179.505 37.6482 178.548 38.0411 177.842 38.7391C177.136 39.437 176.738 40.3831 176.737 41.3701V226.485C176.738 227.472 177.136 228.419 177.842 229.116C178.548 229.814 179.505 230.207 180.504 230.209H313.743C314.742 230.207 315.699 229.814 316.405 229.116C317.111 228.419 317.509 227.472 317.51 226.485V41.3701C317.509 40.3831 317.111 39.437 316.405 38.7391C315.699 38.0411 314.742 37.6482 313.743 37.6464H180.504Z" fill="#EBEBEB"/>
<path d="M345 260.797H0V260.968H345V260.797Z" fill="#EBEBEB"/>
<path d="M82.3377 214.659C81.7581 208.071 74.9547 205.609 66.8886 206.305C58.8225 207.001 52.5642 210.595 53.13 217.183L82.3377 214.659Z" fill="#F0F0F0"/>
<path d="M66.6264 203.297C70.3662 202.97 71.5599 199.846 71.2356 196.15C70.9113 192.454 69.1656 189.582 65.4396 189.903C61.7136 190.223 60.5061 193.354 60.8304 197.05C61.1547 200.747 62.8866 203.618 66.6264 203.297Z" fill="#F0F0F0"/>
<path d="M234.669 74.338C234.734 75.0692 234.579 75.8031 234.222 76.4469C233.866 77.0908 233.324 77.6155 232.665 77.9549C232.007 78.2942 231.261 78.4329 230.523 78.3532C229.785 78.2736 229.087 77.9794 228.518 77.5077C227.949 77.036 227.534 76.4081 227.326 75.7034C227.119 74.9987 227.127 74.2489 227.35 73.5488C227.574 72.8488 228.002 72.23 228.582 71.7708C229.161 71.3116 229.865 71.0325 230.605 70.9689C231.596 70.8838 232.58 71.1907 233.342 71.8224C234.104 72.4541 234.581 73.3588 234.669 74.338Z" fill="#F5F5F5"/>
<path d="M255.417 72.5239C255.481 73.2536 255.325 73.9857 254.968 74.6276C254.611 75.2695 254.07 75.7923 253.413 76.1301C252.755 76.4679 252.011 76.6054 251.274 76.5252C250.538 76.445 249.842 76.1507 249.275 75.6796C248.707 75.2085 248.294 74.5816 248.087 73.8784C247.88 73.1751 247.889 72.427 248.112 71.7286C248.335 71.0302 248.763 70.4129 249.341 69.9548C249.919 69.4967 250.622 69.2183 251.36 69.1548C252.35 69.0716 253.332 69.3795 254.093 70.0109C254.853 70.6424 255.33 71.5461 255.417 72.5239Z" fill="#F5F5F5"/>
<path d="M276.172 70.7302C276.238 71.4614 276.083 72.1953 275.726 72.8391C275.369 73.483 274.827 74.0078 274.169 74.3471C273.51 74.6864 272.765 74.8251 272.026 74.7455C271.288 74.6659 270.59 74.3716 270.021 73.8999C269.452 73.4282 269.038 72.8003 268.83 72.0956C268.622 71.3909 268.63 70.6411 268.854 69.9411C269.077 69.241 269.506 68.6223 270.085 68.163C270.664 67.7038 271.369 67.4247 272.108 67.3611C273.099 67.276 274.084 67.583 274.846 68.2146C275.608 68.8463 276.085 69.751 276.172 70.7302Z" fill="#F5F5F5"/>
<path d="M236.518 95.2208C236.584 95.952 236.428 96.6859 236.072 97.3297C235.715 97.9736 235.173 98.4984 234.514 98.8377C233.856 99.177 233.11 99.3157 232.372 99.2361C231.634 99.1565 230.936 98.8622 230.367 98.3905C229.798 97.9188 229.383 97.2909 229.176 96.5862C228.968 95.8815 228.976 95.1317 229.2 94.4317C229.423 93.7316 229.851 93.1129 230.431 92.6536C231.01 92.1944 231.714 91.9153 232.454 91.8517C233.445 91.7666 234.429 92.0736 235.191 92.7052C235.953 93.3369 236.431 94.2416 236.518 95.2208Z" fill="#F5F5F5"/>
<path d="M257.267 93.434C257.331 94.1637 257.174 94.8958 256.817 95.5377C256.461 96.1796 255.919 96.7024 255.262 97.0402C254.604 97.378 253.86 97.5155 253.124 97.4353C252.387 97.3551 251.691 97.0608 251.124 96.5897C250.556 96.1186 250.143 95.4917 249.936 94.7885C249.729 94.0852 249.738 93.3371 249.961 92.6387C250.184 91.9403 250.612 91.323 251.19 90.8649C251.768 90.4068 252.471 90.1284 253.209 90.0649C253.7 90.0228 254.193 90.0765 254.663 90.2231C255.132 90.3696 255.567 90.606 255.944 90.9189C256.321 91.2317 256.631 91.6149 256.858 92.0464C257.085 92.478 257.224 92.9495 257.267 93.434Z" fill="#F5F5F5"/>
<path d="M278.022 91.6335C278.087 92.3647 277.932 93.0986 277.575 93.7425C277.218 94.3863 276.676 94.9111 276.018 95.2504C275.359 95.5897 274.614 95.7284 273.876 95.6488C273.137 95.5692 272.44 95.2749 271.871 94.8032C271.302 94.3315 270.887 93.7036 270.679 92.9989C270.471 92.2942 270.48 91.5444 270.703 90.8444C270.926 90.1444 271.355 89.5256 271.934 89.0663C272.514 88.6071 273.218 88.328 273.958 88.2644C274.948 88.1793 275.933 88.4863 276.695 89.118C277.457 89.7496 277.934 90.6544 278.022 91.6335Z" fill="#F5F5F5"/>
<path d="M238.367 116.131C238.431 116.861 238.275 117.593 237.918 118.235C237.562 118.877 237.02 119.399 236.363 119.737C235.705 120.075 234.961 120.212 234.225 120.132C233.488 120.052 232.792 119.758 232.225 119.287C231.657 118.816 231.244 118.189 231.037 117.485C230.83 116.782 230.839 116.034 231.062 115.336C231.285 114.637 231.713 114.02 232.291 113.562C232.869 113.104 233.572 112.825 234.31 112.762C234.801 112.719 235.295 112.772 235.764 112.918C236.234 113.064 236.67 113.301 237.047 113.614C237.424 113.927 237.734 114.31 237.961 114.742C238.188 115.174 238.326 115.646 238.367 116.131Z" fill="#F5F5F5"/>
<path d="M259.123 114.331C259.188 115.062 259.033 115.796 258.676 116.439C258.319 117.083 257.777 117.608 257.119 117.947C256.46 118.287 255.715 118.425 254.977 118.346C254.238 118.266 253.541 117.972 252.972 117.5C252.403 117.029 251.988 116.401 251.78 115.696C251.572 114.991 251.581 114.241 251.804 113.541C252.027 112.841 252.456 112.223 253.035 111.763C253.615 111.304 254.319 111.025 255.059 110.961C256.049 110.876 257.034 111.183 257.796 111.815C258.558 112.447 259.035 113.351 259.123 114.331Z" fill="#F5F5F5"/>
<path d="M279.871 112.53C279.936 113.261 279.781 113.995 279.424 114.639C279.068 115.283 278.526 115.808 277.867 116.147C277.209 116.486 276.463 116.625 275.725 116.545C274.987 116.466 274.289 116.171 273.72 115.7C273.151 115.228 272.736 114.6 272.528 113.895C272.32 113.191 272.329 112.441 272.552 111.741C272.776 111.041 273.204 110.422 273.783 109.963C274.363 109.504 275.067 109.225 275.807 109.161C276.798 109.076 277.782 109.383 278.544 110.014C279.306 110.646 279.783 111.551 279.871 112.53Z" fill="#F5F5F5"/>
<path d="M275.386 113.744L232.758 117.427L270.556 72.0329L231.84 75.3815C231.732 75.3918 231.623 75.3806 231.519 75.3486C231.416 75.3166 231.319 75.2644 231.236 75.1952C231.154 75.1259 231.085 75.0409 231.036 74.9453C230.987 74.8496 230.958 74.7452 230.95 74.6381C230.931 74.4238 230.998 74.2107 231.138 74.0458C231.278 73.8808 231.478 73.7774 231.695 73.7584L274.33 70.0756L236.525 115.469L275.255 112.121C275.473 112.104 275.689 112.172 275.857 112.311C276.025 112.45 276.131 112.649 276.152 112.864C276.16 112.972 276.147 113.08 276.113 113.182C276.079 113.285 276.025 113.38 275.954 113.462C275.883 113.543 275.796 113.61 275.698 113.659C275.601 113.707 275.495 113.736 275.386 113.744Z" fill="#E6E6E6"/>
<path d="M276.041 194.786C275.976 194.587 275.852 194.412 275.687 194.283C275.521 194.153 275.32 194.074 275.11 194.056C273.256 193.972 271.502 193.206 270.19 191.908C268.486 190.21 267.485 187.639 267.32 184.583C267.304 184.308 267.182 184.048 266.98 183.858C266.777 183.668 266.509 183.562 266.23 183.56C266.079 183.561 265.929 183.592 265.791 183.651C265.652 183.711 265.527 183.797 265.424 183.905C265.32 184.014 265.239 184.142 265.187 184.282C265.134 184.422 265.111 184.571 265.119 184.72C265.312 188.307 266.54 191.376 268.631 193.442C270.268 195.063 272.44 196.048 274.751 196.218H274.91C275.091 196.232 275.273 196.201 275.44 196.128C275.606 196.056 275.752 195.944 275.864 195.802C275.976 195.66 276.051 195.493 276.082 195.316C276.113 195.139 276.099 194.957 276.041 194.786Z" fill="#F0F0F0"/>
<path d="M273.833 207.874C264.691 207.082 258.094 200.924 256.011 191.308C255.978 191.163 255.974 191.014 256.001 190.868C256.028 190.722 256.084 190.584 256.167 190.46C256.249 190.336 256.356 190.231 256.481 190.149C256.606 190.067 256.747 190.011 256.894 189.985C257.173 189.936 257.461 189.995 257.697 190.15C257.934 190.305 258.101 190.543 258.163 190.817C260.033 199.458 265.898 204.996 274.033 205.698C282.948 206.469 292.519 200.672 294.237 186.063C294.266 185.778 294.408 185.516 294.632 185.334C294.855 185.152 295.142 185.063 295.43 185.088C295.577 185.1 295.719 185.141 295.849 185.208C295.979 185.275 296.094 185.367 296.187 185.479C296.281 185.591 296.35 185.72 296.392 185.859C296.434 185.998 296.447 186.144 296.431 186.288C294.782 200.065 285.619 208.89 273.833 207.874Z" fill="#F0F0F0"/>
<path d="M256.583 181.726C256.437 181.714 256.295 181.673 256.165 181.606C256.035 181.539 255.92 181.446 255.827 181.334C255.733 181.223 255.664 181.093 255.622 180.954C255.58 180.815 255.567 180.67 255.583 180.525C257.225 166.749 266.388 157.917 278.167 158.94C288.517 159.834 295.451 167.472 296.534 178.977C296.546 179.122 296.528 179.267 296.482 179.404C296.435 179.542 296.362 179.669 296.266 179.778C296.169 179.887 296.052 179.977 295.92 180.04C295.789 180.104 295.646 180.142 295.499 180.15C295.211 180.164 294.93 180.066 294.713 179.877C294.497 179.689 294.363 179.425 294.34 179.141C293.34 168.775 287.15 161.907 277.98 161.116C269.1 160.345 259.488 166.135 257.777 180.73C257.765 180.873 257.724 181.012 257.658 181.139C257.591 181.267 257.5 181.38 257.389 181.472C257.278 181.565 257.15 181.635 257.012 181.678C256.873 181.722 256.728 181.738 256.583 181.726Z" fill="#F0F0F0"/>
<path d="M274.282 202.029C272.643 201.899 271.036 201.503 269.528 200.856C269.387 200.795 269.261 200.706 269.157 200.594C269.053 200.482 268.973 200.351 268.923 200.207C268.873 200.064 268.854 199.911 268.867 199.76C268.879 199.609 268.923 199.462 268.997 199.328C269.126 199.094 269.339 198.915 269.594 198.827C269.849 198.739 270.128 198.747 270.377 198.851C271.815 199.461 273.353 199.813 274.917 199.887C281.672 200.269 288.806 195.536 289.51 184.106C289.938 177.061 287.495 171.373 282.941 168.652C282.706 168.511 282.532 168.288 282.454 168.027C282.376 167.765 282.4 167.485 282.521 167.24C282.589 167.105 282.685 166.985 282.803 166.888C282.92 166.791 283.056 166.718 283.203 166.676C283.35 166.633 283.504 166.62 283.656 166.639C283.808 166.657 283.955 166.706 284.087 166.783C289.365 169.934 292.194 176.331 291.711 184.235C291.021 195.257 284.08 202.595 274.786 202.07L274.282 202.029Z" fill="#F0F0F0"/>
<path d="M264.456 195.229C264.329 195.314 264.186 195.372 264.035 195.4C263.884 195.428 263.729 195.425 263.58 195.391C263.43 195.357 263.289 195.293 263.166 195.203C263.043 195.113 262.939 194.999 262.862 194.868C260.817 191.109 259.918 186.845 260.275 182.592C260.923 172.041 267.32 164.86 276.007 164.737C276.16 164.734 276.312 164.762 276.453 164.82C276.595 164.878 276.723 164.964 276.829 165.072C276.935 165.181 277.017 165.311 277.071 165.453C277.124 165.594 277.147 165.745 277.138 165.896C277.121 166.169 277.001 166.426 276.802 166.615C276.603 166.805 276.339 166.913 276.062 166.919C269.618 167.042 263.145 171.857 262.483 182.721C262.148 186.56 262.949 190.413 264.788 193.811C264.926 194.047 264.969 194.325 264.907 194.591C264.846 194.857 264.685 195.09 264.456 195.243V195.229Z" fill="#F0F0F0"/>
<path d="M279.54 194.37C279.435 194.128 279.423 193.856 279.505 193.605C279.588 193.354 279.759 193.141 279.988 193.006C282.893 191.281 284.673 187.659 284.701 183.288C284.701 179.789 283.7 176.829 281.81 174.954C281.076 174.234 280.201 173.671 279.238 173.298C278.276 172.925 277.247 172.751 276.214 172.785C272.812 172.785 270.052 174.633 268.527 177.879C268.41 178.126 268.202 178.32 267.947 178.422C267.691 178.525 267.405 178.528 267.147 178.432C267.003 178.379 266.872 178.297 266.762 178.192C266.651 178.087 266.564 177.96 266.506 177.819C266.447 177.679 266.419 177.528 266.423 177.377C266.426 177.225 266.461 177.076 266.526 176.938C268.417 172.962 271.957 170.609 276.186 170.602C277.511 170.569 278.829 170.8 280.061 171.283C281.293 171.766 282.414 172.49 283.355 173.412C285.667 175.704 286.923 179.216 286.895 183.308C286.854 188.457 284.66 192.781 281.085 194.902C280.95 194.975 280.801 195.019 280.647 195.032C280.493 195.044 280.339 195.025 280.193 194.975C280.048 194.925 279.914 194.845 279.802 194.741C279.689 194.637 279.6 194.51 279.54 194.37Z" fill="#F0F0F0"/>
<path d="M271.591 186.316C271.443 186.375 271.285 186.402 271.126 186.395C270.967 186.388 270.811 186.348 270.67 186.276C270.528 186.204 270.404 186.102 270.306 185.979C270.207 185.855 270.137 185.712 270.1 185.559C270.025 185.265 269.969 184.958 269.921 184.645C269.293 180.553 271.515 177.013 275.082 176.379C275.913 176.2 276.774 176.217 277.597 176.426C278.421 176.636 279.183 177.033 279.823 177.586C279.943 177.692 280.037 177.822 280.099 177.969C280.161 178.116 280.188 178.274 280.18 178.433C280.171 178.591 280.126 178.746 280.049 178.885C279.972 179.024 279.864 179.144 279.733 179.236L279.664 179.284C279.457 179.426 279.207 179.494 278.955 179.475C278.704 179.457 278.467 179.353 278.284 179.182C277.897 178.859 277.439 178.629 276.947 178.511C276.455 178.393 275.942 178.389 275.448 178.5C272.729 178.984 271.694 181.78 272.081 184.29C272.122 184.536 272.164 184.774 272.226 184.972C272.292 185.229 272.263 185.501 272.142 185.738C272.022 185.975 271.818 186.161 271.57 186.261L271.591 186.316Z" fill="#F0F0F0"/>
<path d="M275.241 190.517C275.067 190.5 274.9 190.439 274.756 190.341C274.613 190.243 274.497 190.11 274.419 189.955C274.342 189.8 274.306 189.628 274.314 189.456C274.323 189.283 274.376 189.115 274.468 188.969L274.565 188.819C274.664 188.662 274.804 188.536 274.971 188.453C275.138 188.37 275.324 188.334 275.51 188.348C275.856 188.368 276.204 188.347 276.545 188.287C278.919 187.864 279.995 185.681 279.995 183.458C279.988 183.191 280.08 182.931 280.252 182.725C280.425 182.519 280.667 182.382 280.933 182.34C281.087 182.316 281.243 182.325 281.392 182.366C281.542 182.406 281.681 182.478 281.801 182.575C281.92 182.672 282.018 182.793 282.087 182.93C282.157 183.067 282.196 183.216 282.203 183.369C282.265 186.929 280.133 189.869 276.938 190.435C276.379 190.537 275.808 190.565 275.241 190.517Z" fill="#F0F0F0"/>
<path d="M275.731 186.486C275.174 186.44 274.645 186.222 274.219 185.864C273.794 185.505 273.492 185.024 273.357 184.488C273.318 184.337 273.317 184.178 273.352 184.026C273.387 183.874 273.459 183.732 273.561 183.613C273.663 183.493 273.792 183.4 273.938 183.34C274.084 183.28 274.242 183.255 274.399 183.267H274.654C274.848 183.287 275.031 183.362 275.181 183.483C275.332 183.604 275.444 183.766 275.503 183.949C275.527 184.044 275.581 184.129 275.656 184.193C275.732 184.257 275.825 184.295 275.924 184.304C276.455 184.351 276.545 183.622 276.559 183.444C276.591 183.179 276.54 182.91 276.414 182.674C276.224 182.446 276.125 182.157 276.138 181.862C276.155 181.645 276.238 181.439 276.375 181.269C276.512 181.099 276.698 180.973 276.907 180.908C277.117 180.843 277.342 180.841 277.553 180.903C277.764 180.965 277.951 181.087 278.091 181.255C278.629 181.928 278.877 182.783 278.781 183.635C278.601 185.429 277.325 186.623 275.731 186.486Z" fill="#F0F0F0"/>
<path d="M254.976 162.077C254.831 162.065 254.691 162.025 254.562 161.959C254.434 161.893 254.32 161.803 254.227 161.693C254.134 161.584 254.064 161.457 254.021 161.32C253.977 161.184 253.962 161.04 253.975 160.897L254.81 151.438L264.38 152.27C264.525 152.282 264.665 152.322 264.794 152.388C264.922 152.454 265.036 152.544 265.129 152.654C265.222 152.764 265.292 152.891 265.336 153.027C265.379 153.164 265.394 153.307 265.381 153.45C265.369 153.593 265.328 153.732 265.262 153.859C265.195 153.987 265.104 154.1 264.993 154.192C264.882 154.285 264.754 154.355 264.616 154.398C264.477 154.442 264.332 154.458 264.187 154.446L256.818 153.805L256.176 161.088C256.163 161.231 256.122 161.37 256.055 161.497C255.987 161.624 255.895 161.737 255.784 161.829C255.672 161.921 255.543 161.99 255.405 162.033C255.266 162.075 255.12 162.09 254.976 162.077Z" fill="#F0F0F0"/>
<path d="M300.467 166.012C300.323 166 300.183 165.96 300.054 165.894C299.926 165.828 299.812 165.738 299.719 165.628C299.626 165.519 299.555 165.392 299.512 165.255C299.469 165.119 299.454 164.975 299.467 164.833L300.109 157.549L292.739 156.915C292.595 156.902 292.454 156.861 292.326 156.794C292.197 156.728 292.083 156.636 291.99 156.526C291.897 156.416 291.827 156.289 291.784 156.152C291.741 156.015 291.726 155.871 291.739 155.728C291.751 155.585 291.792 155.446 291.858 155.319C291.925 155.192 292.016 155.08 292.127 154.988C292.238 154.896 292.367 154.826 292.505 154.784C292.643 154.741 292.788 154.726 292.933 154.739L302.503 155.564L301.668 165.044C301.637 165.329 301.493 165.59 301.269 165.771C301.044 165.953 300.756 166.039 300.467 166.012Z" fill="#F0F0F0"/>
<path d="M297.079 216.876L287.509 216.051C287.365 216.038 287.224 215.997 287.095 215.93C286.967 215.864 286.853 215.773 286.76 215.663C286.667 215.552 286.597 215.425 286.554 215.288C286.511 215.151 286.495 215.007 286.509 214.864C286.521 214.722 286.561 214.583 286.628 214.456C286.695 214.329 286.786 214.216 286.897 214.124C287.008 214.032 287.136 213.963 287.275 213.92C287.413 213.877 287.558 213.862 287.702 213.875L295.072 214.509L295.713 207.233C295.725 207.089 295.766 206.949 295.833 206.821C295.9 206.694 295.992 206.58 296.104 206.488C296.215 206.395 296.344 206.325 296.483 206.282C296.623 206.239 296.769 206.224 296.914 206.237C297.058 206.249 297.199 206.289 297.327 206.355C297.456 206.421 297.57 206.511 297.663 206.621C297.756 206.731 297.826 206.857 297.869 206.994C297.912 207.13 297.928 207.274 297.914 207.417L297.079 216.876Z" fill="#F0F0F0"/>
<path d="M258.957 213.562L249.387 212.73L250.222 203.277C250.25 202.989 250.391 202.723 250.616 202.536C250.84 202.35 251.13 202.258 251.422 202.281C251.567 202.294 251.707 202.335 251.836 202.402C251.965 202.468 252.079 202.559 252.171 202.67C252.264 202.78 252.334 202.907 252.378 203.044C252.421 203.181 252.436 203.325 252.423 203.468L251.781 210.738L259.143 211.379C259.288 211.391 259.429 211.431 259.557 211.497C259.686 211.563 259.801 211.653 259.894 211.763C259.988 211.872 260.059 211.999 260.103 212.136C260.147 212.272 260.163 212.416 260.151 212.559C260.126 212.848 259.987 213.116 259.763 213.304C259.539 213.491 259.25 213.584 258.957 213.562Z" fill="#F0F0F0"/>
<path d="M51.5637 193.095C51.3839 193.108 51.206 193.051 51.068 192.936C50.93 192.822 50.8429 192.658 50.8254 192.481L50.3148 186.67L56.1936 186.159C56.3734 186.145 56.5513 186.202 56.6893 186.317C56.8273 186.432 56.9144 186.595 56.9319 186.772C56.9435 186.949 56.8852 187.123 56.7693 187.258C56.6534 187.393 56.4891 187.478 56.3109 187.495L51.7845 187.891L52.1778 192.365C52.1914 192.541 52.1349 192.716 52.0203 192.853C51.9056 192.989 51.7419 193.076 51.5637 193.095Z" fill="#E0E0E0"/>
<path d="M79.5363 190.674C79.3576 190.687 79.1806 190.631 79.0428 190.518C78.905 190.405 78.8172 190.243 78.798 190.067L78.4047 185.586L73.8714 185.981C73.6916 185.995 73.5137 185.938 73.3757 185.823C73.2377 185.709 73.1506 185.545 73.1331 185.368C73.1196 185.19 73.1771 185.014 73.2931 184.878C73.4092 184.741 73.5746 184.655 73.7541 184.638L79.6329 184.133L80.1504 189.944C80.164 190.12 80.1075 190.295 79.9929 190.432C79.8782 190.568 79.7145 190.655 79.5363 190.674Z" fill="#E0E0E0"/>
<path d="M82.4343 215.71L76.5486 216.221C76.3688 216.235 76.1909 216.178 76.0529 216.063C75.9149 215.948 75.8278 215.785 75.8103 215.608C75.7968 215.43 75.8543 215.254 75.9703 215.118C76.0864 214.981 76.2519 214.895 76.4313 214.878L80.9577 214.489L80.5644 210.015C80.5508 209.839 80.6073 209.664 80.7219 209.527C80.8366 209.391 81.0003 209.304 81.1785 209.285C81.3572 209.272 81.5342 209.328 81.672 209.441C81.8098 209.554 81.8976 209.716 81.9168 209.892L82.4343 215.71Z" fill="#E0E0E0"/>
<path d="M58.9881 217.735L53.13 218.24L52.6125 212.423C52.6009 212.246 52.6592 212.072 52.7751 211.937C52.8909 211.802 53.0553 211.717 53.2335 211.7C53.4111 211.688 53.5863 211.745 53.7226 211.858C53.8589 211.971 53.9457 212.132 53.9649 212.307L54.3651 216.787L58.8915 216.392C59.0713 216.378 59.2492 216.435 59.3872 216.55C59.5252 216.665 59.6123 216.828 59.6298 217.006C59.6364 217.095 59.625 217.185 59.5962 217.27C59.5675 217.356 59.522 217.434 59.4624 217.502C59.4028 217.57 59.3302 217.626 59.2488 217.666C59.1674 217.706 59.0788 217.729 58.9881 217.735Z" fill="#E0E0E0"/>
<path d="M79.0602 96.162L56.58 98.0716L56.1177 92.868C56.0839 90.3845 57.0015 87.9802 58.6863 86.1374C60.3711 84.2946 62.6985 83.1496 65.2017 82.9322C67.7049 82.7147 70.1988 83.4408 72.183 84.9648C74.1672 86.4888 75.495 88.6981 75.9 91.1493L76.1622 94.1774L79.4121 93.8978L79.143 90.8697C78.9917 89.1618 78.5015 87.5 77.7004 85.9793C76.8994 84.4586 75.8031 83.1088 74.4742 82.0068C73.1454 80.9049 71.6099 80.0725 69.9556 79.5571C68.3012 79.0416 66.5604 78.8533 64.8324 79.0029C61.3426 79.305 58.1172 80.9649 55.8656 83.6175C54.7507 84.931 53.9085 86.4486 53.3871 88.0838C52.8656 89.719 52.6751 91.4396 52.8264 93.1476L53.2887 98.3853C52.0087 98.633 50.8664 99.3397 50.0818 100.37C49.2971 101.399 48.9255 102.68 49.0383 103.964L50.646 122.133C50.7034 122.818 50.8972 123.486 51.2164 124.098C51.5356 124.709 51.9738 125.252 52.5059 125.696C53.0381 126.139 53.6536 126.475 54.3173 126.682C54.9809 126.89 55.6795 126.966 56.373 126.907L81.5787 124.731C82.2725 124.674 82.9481 124.483 83.5667 124.167C84.1854 123.852 84.7349 123.419 85.1837 122.893C85.6325 122.367 85.9717 121.758 86.1819 121.102C86.3922 120.446 86.4692 119.756 86.4087 119.07L84.801 100.902C84.7394 100.218 84.542 99.5527 84.2201 98.9441C83.8982 98.3356 83.458 97.7958 82.9248 97.3556C82.3916 96.9153 81.7759 96.5833 81.1127 96.3785C80.4496 96.1737 79.7521 96.1002 79.0602 96.162ZM69.4968 110.163L70.0488 116.417C70.086 116.669 70.0707 116.926 70.0041 117.171C69.9374 117.417 69.8206 117.647 69.661 117.846C69.5014 118.046 69.3023 118.211 69.0758 118.332C68.8493 118.453 68.6002 118.526 68.3439 118.549C68.0875 118.571 67.8293 118.541 67.5849 118.462C67.3405 118.382 67.1152 118.253 66.9228 118.085C66.7304 117.916 66.5748 117.71 66.4657 117.479C66.3566 117.249 66.2962 116.999 66.2883 116.745L65.7363 110.484C65.1671 110.139 64.7227 109.624 64.4663 109.015C64.21 108.405 64.1548 107.731 64.3086 107.088C64.4624 106.446 64.8174 105.868 65.323 105.436C65.8286 105.005 66.4591 104.742 67.1246 104.685C67.7901 104.628 68.4568 104.781 69.0297 105.12C69.6026 105.46 70.0524 105.969 70.3153 106.576C70.5781 107.183 70.6405 107.857 70.4935 108.501C70.3466 109.145 69.9978 109.727 69.4968 110.163Z" fill="#EBEBEB"/>
<path d="M117.604 106.658L115.334 102.982C114.189 103.143 113.028 103.143 111.884 102.982L109.607 106.644L109.172 106.528C107.696 106.144 106.28 105.564 104.963 104.803L104.576 104.585L105.536 100.602C105.554 100.525 105.588 100.452 105.635 100.387C105.683 100.323 105.742 100.269 105.811 100.228C105.88 100.186 105.956 100.159 106.035 100.147C106.115 100.135 106.196 100.139 106.274 100.158C106.43 100.196 106.565 100.293 106.649 100.428C106.733 100.564 106.76 100.727 106.722 100.881L105.963 103.985C106.944 104.513 107.978 104.938 109.048 105.253L111.269 101.666L111.677 101.734C112.965 101.939 114.279 101.939 115.568 101.734L115.968 101.666L118.19 105.253C119.261 104.94 120.295 104.515 121.274 103.985L120.288 99.8925L120.619 99.6538C121.518 99.0131 122.323 98.2535 123.013 97.3964C123.109 97.2729 123.25 97.1911 123.406 97.1682C123.561 97.1453 123.72 97.1831 123.848 97.2736C123.915 97.3196 123.972 97.3787 124.015 97.4472C124.059 97.5157 124.087 97.5922 124.099 97.672C124.112 97.7518 124.107 97.8332 124.087 97.9113C124.066 97.9894 124.029 98.0625 123.979 98.1261C123.301 98.9725 122.52 99.7329 121.654 100.39L122.668 104.571L122.275 104.789C120.959 105.549 119.546 106.129 118.073 106.515L117.604 106.658ZM103.652 98.6513C103.466 98.4398 103.279 98.2148 103.1 97.9693L98.8701 98.9718L98.6424 98.5899C97.8784 97.2848 97.2915 95.8861 96.8967 94.4297L96.7863 94L100.492 91.7494C100.329 90.6185 100.329 89.4704 100.492 88.3394L96.7863 86.0956L96.8967 85.6592C97.2915 84.2049 97.8785 82.8084 98.6424 81.5058L98.8701 81.1171L103.1 82.1196C103.806 81.2062 104.632 80.3897 105.556 79.6917L104.79 76.5272C104.753 76.3725 104.779 76.2096 104.863 76.074C104.947 75.9385 105.082 75.8415 105.239 75.8043C105.316 75.7861 105.396 75.7831 105.474 75.7955C105.552 75.808 105.627 75.8356 105.694 75.8768C105.762 75.918 105.82 75.972 105.866 76.0356C105.913 76.0993 105.945 76.1713 105.963 76.2476L106.922 80.1895L106.591 80.4214C105.528 81.1774 104.596 82.0987 103.831 83.1494L103.59 83.4768L99.4497 82.5015C98.9131 83.4695 98.4829 84.4915 98.1663 85.5501L101.789 87.7461L101.727 88.1417C101.496 89.4137 101.496 90.7161 101.727 91.9881L101.789 92.3905L98.1663 94.5866C98.4841 95.6424 98.9143 96.662 99.4497 97.6283L103.59 96.653L103.831 96.9804C104.046 97.2896 104.276 97.5878 104.521 97.8738C104.628 97.9841 104.687 98.1306 104.687 98.283C104.687 98.4353 104.628 98.5819 104.521 98.6922C104.462 98.7478 104.393 98.7911 104.316 98.8192C104.24 98.8474 104.159 98.86 104.078 98.8562C103.996 98.8523 103.917 98.8322 103.843 98.797C103.77 98.7618 103.705 98.7122 103.652 98.6513ZM128.312 98.9854L126.753 98.6172C126.597 98.58 126.462 98.4829 126.377 98.3474C126.293 98.2119 126.267 98.0489 126.305 97.8942C126.342 97.7397 126.44 97.6062 126.577 97.5231C126.715 97.44 126.879 97.414 127.036 97.4509L127.726 97.6078C128.259 96.6414 128.687 95.6218 129.002 94.5661L125.38 92.3701L125.449 91.9677C125.679 90.6956 125.679 89.3932 125.449 88.1212L125.38 87.7256L129.002 85.5296C128.688 84.4713 128.26 83.4493 127.726 82.4811L123.586 83.4563L123.351 83.1289C122.585 82.0798 121.653 81.1588 120.591 80.4009L120.26 80.1691L121.247 76.0771C120.267 75.5489 119.233 75.1259 118.163 74.8154L115.92 78.43L115.52 78.3618C114.231 78.1571 112.917 78.1571 111.628 78.3618L111.221 78.43L109.02 74.829L108.606 74.9518C108.459 74.9998 108.298 74.9888 108.159 74.9213C108.02 74.8537 107.913 74.7349 107.861 74.5903C107.832 74.5156 107.819 74.436 107.822 74.3562C107.825 74.2764 107.844 74.198 107.878 74.1256C107.912 74.0532 107.961 73.9883 108.021 73.9345C108.08 73.8808 108.15 73.8395 108.227 73.8128C108.53 73.7174 108.841 73.6287 109.144 73.5468L109.579 73.4309L111.856 77.1001C113 76.932 114.162 76.932 115.306 77.1001L117.576 73.4309L118.018 73.5468C119.49 73.9353 120.903 74.5156 122.22 75.2723L122.613 75.4974L121.599 79.678C122.524 80.3745 123.35 81.1912 124.055 82.1059L128.285 81.1034L128.513 81.4921C129.279 82.7934 129.866 84.1903 130.258 85.6455L130.376 86.082L126.663 88.3258C126.835 89.4561 126.835 90.6055 126.663 91.7358L130.376 93.9864L130.258 94.4161C129.866 95.8735 129.279 97.2726 128.513 98.5762L128.312 98.9854ZM113.422 95.8892C111.919 95.8303 110.493 95.2136 109.429 94.1619C108.365 93.1103 107.741 91.701 107.681 90.2149C107.64 88.7533 108.154 87.3294 109.122 86.2237C110.09 85.1179 111.442 84.4105 112.912 84.2406C112.998 84.23 113.085 84.2376 113.168 84.2629C113.251 84.2881 113.328 84.3305 113.393 84.3873C113.458 84.444 113.511 84.5137 113.547 84.5919C113.583 84.6701 113.601 84.7549 113.602 84.8408C113.601 84.9858 113.546 85.1256 113.449 85.2337C113.351 85.3417 113.216 85.4106 113.07 85.4273C112.048 85.5425 111.092 85.9864 110.349 86.6906C109.607 87.3949 109.119 88.3206 108.96 89.3256C108.801 90.3306 108.981 91.3594 109.471 92.2538C109.961 93.1482 110.735 93.8588 111.673 94.2765C112.611 94.6942 113.663 94.7959 114.665 94.566C115.667 94.336 116.566 93.7872 117.222 93.0037C117.878 92.2202 118.256 91.2454 118.298 90.2291C118.339 89.2127 118.042 88.211 117.452 87.3778C117.367 87.2598 117.329 87.1144 117.347 86.9705C117.365 86.8266 117.437 86.6945 117.548 86.6003C117.613 86.5438 117.689 86.5014 117.771 86.4761C117.853 86.4507 117.94 86.443 118.025 86.4533C118.111 86.4636 118.193 86.4918 118.267 86.536C118.34 86.5801 118.404 86.6393 118.452 86.7094C119.08 87.597 119.446 88.6396 119.508 89.7207C119.571 90.8018 119.328 91.8788 118.807 92.8313C118.285 93.7838 117.506 94.5743 116.557 95.1143C115.607 95.6543 114.524 95.9226 113.429 95.8892H113.422Z" fill="#F0F0F0"/>
<path d="M74.7339 156.58L73.2642 154.214C72.5208 154.323 71.7651 154.323 71.0217 154.214L69.552 156.58L69.2691 156.505C68.3166 156.257 67.4022 155.883 66.5505 155.394L66.3021 155.251L66.9231 152.673C66.9477 152.574 67.0106 152.488 67.0984 152.434C67.1862 152.381 67.2917 152.364 67.3923 152.386C67.4426 152.398 67.4901 152.42 67.5319 152.45C67.5738 152.48 67.6092 152.518 67.6361 152.562C67.663 152.606 67.6809 152.654 67.6888 152.705C67.6967 152.755 67.6944 152.807 67.6821 152.857L67.1991 154.862C67.8321 155.205 68.5007 155.479 69.1932 155.68L70.6284 153.368L70.8837 153.409C71.7175 153.546 72.5684 153.546 73.4022 153.409L73.6575 153.368L75.0996 155.68C75.7883 155.475 76.4542 155.2 77.0868 154.862L76.452 152.229L76.6659 152.072C77.246 151.66 77.766 151.172 78.2115 150.62C78.2721 150.539 78.3627 150.485 78.4635 150.469C78.5644 150.454 78.6672 150.479 78.7497 150.538C78.7921 150.568 78.828 150.606 78.8555 150.649C78.883 150.693 78.9014 150.741 78.9098 150.792C78.9181 150.843 78.9162 150.895 78.9041 150.945C78.892 150.995 78.87 151.042 78.8394 151.084C78.3998 151.631 77.8947 152.123 77.3352 152.55L78.0252 155.278L77.7699 155.421C76.9188 155.912 76.0042 156.286 75.0513 156.533L74.7339 156.58ZM65.7225 151.404L65.3637 150.974L62.6037 151.615L62.4588 151.37C61.9727 150.525 61.6037 149.619 61.3617 148.676L61.2858 148.396L63.6801 146.944C63.5697 146.209 63.5697 145.462 63.6801 144.727L61.2858 143.275L61.3617 142.995C61.6118 142.053 61.9902 141.149 62.4864 140.308L62.6313 140.056L65.3913 140.738C65.8351 140.14 66.3519 139.6 66.93 139.128L66.4401 137.082C66.4278 137.033 66.4256 136.982 66.4336 136.931C66.4416 136.881 66.4596 136.833 66.4865 136.79C66.5135 136.747 66.5489 136.709 66.5907 136.68C66.6325 136.65 66.6798 136.63 66.7299 136.618C66.8305 136.596 66.936 136.613 67.0238 136.667C67.1116 136.72 67.1745 136.806 67.1991 136.905L67.8201 139.449L67.5993 139.605C66.9155 140.09 66.3165 140.682 65.826 141.358L65.6673 141.57L63.0039 140.942C62.6612 141.567 62.3838 142.226 62.1759 142.906L64.515 144.325L64.4736 144.584C64.4024 144.994 64.3655 145.409 64.3632 145.825C64.3655 146.244 64.4024 146.661 64.4736 147.073L64.515 147.326L62.1759 148.744C62.3825 149.428 62.66 150.088 63.0039 150.715L65.6673 150.081L65.826 150.292C65.9686 150.494 66.1229 150.688 66.2883 150.872C66.3562 150.943 66.3941 151.037 66.3941 151.135C66.3941 151.232 66.3562 151.326 66.2883 151.397C66.2526 151.436 66.2092 151.467 66.1608 151.489C66.1124 151.51 66.06 151.522 66.0069 151.522C65.9538 151.523 65.9012 151.513 65.8522 151.493C65.8033 151.472 65.7591 151.442 65.7225 151.404ZM81.6546 151.615L80.6472 151.384C80.5969 151.372 80.5494 151.35 80.5076 151.32C80.4657 151.29 80.4303 151.252 80.4034 151.208C80.3765 151.164 80.3586 151.116 80.3507 151.065C80.3428 151.014 80.3451 150.963 80.3574 150.913C80.3687 150.864 80.39 150.817 80.4198 150.775C80.4496 150.734 80.4875 150.699 80.5312 150.672C80.5749 150.646 80.6235 150.628 80.6742 150.62C80.7249 150.612 80.7767 150.614 80.8266 150.627L81.2613 150.729C81.6081 150.103 81.8857 149.442 82.0893 148.758L79.7502 147.339L79.7916 147.087C79.8628 146.675 79.8997 146.257 79.902 145.839C79.8997 145.423 79.8627 145.008 79.7916 144.598L79.7502 144.339L82.0893 142.92C81.8844 142.238 81.6068 141.58 81.2613 140.956L78.5979 141.583L78.4392 141.372C77.9487 140.696 77.3497 140.104 76.6659 139.619L76.452 139.462L77.0868 136.83C76.4556 136.488 75.7894 136.214 75.0996 136.011L73.6575 138.323L73.4022 138.282C72.5684 138.146 71.7175 138.146 70.8837 138.282L70.6284 138.323L69.1932 136.011L68.9241 136.093C68.828 136.124 68.7237 136.116 68.6334 136.071C68.5432 136.026 68.4741 135.949 68.4411 135.854C68.4225 135.807 68.4139 135.756 68.4157 135.704C68.4175 135.653 68.4297 135.603 68.4516 135.556C68.4735 135.51 68.5046 135.468 68.5431 135.434C68.5816 135.4 68.6267 135.373 68.6757 135.357L69.2691 135.179L69.552 135.111L71.0217 137.478C71.7651 137.368 72.5208 137.368 73.2642 137.478L74.7339 135.111L75.0168 135.179C75.969 135.432 76.8831 135.808 77.7354 136.298L77.9907 136.441L77.3007 139.169C77.8948 139.623 78.4281 140.15 78.8877 140.738L81.6477 140.056L81.7926 140.308C82.2888 141.149 82.6672 142.053 82.9173 142.995L82.9932 143.275L80.5989 144.727C80.7093 145.462 80.7093 146.209 80.5989 146.944L82.9932 148.396L82.9173 148.676C82.666 149.618 82.2877 150.521 81.7926 151.363L81.6546 151.615ZM72.036 149.617C71.0984 149.554 70.2174 149.151 69.5612 148.486C68.905 147.821 68.5196 146.941 68.4786 146.013C68.4376 145.085 68.744 144.174 69.3391 143.455C69.9342 142.736 70.7764 142.259 71.7048 142.115C71.7601 142.11 71.8161 142.115 71.8691 142.132C71.922 142.149 71.9708 142.177 72.0124 142.213C72.054 142.25 72.0873 142.295 72.1104 142.345C72.1335 142.395 72.1457 142.449 72.1464 142.504C72.1469 142.599 72.112 142.69 72.0482 142.761C71.9845 142.831 71.8965 142.876 71.8014 142.886C71.2194 142.952 70.6691 143.182 70.2168 143.55C69.7646 143.918 69.4297 144.408 69.2525 144.96C69.0754 145.512 69.0636 146.102 69.2185 146.661C69.3734 147.219 69.6885 147.721 70.1257 148.107C70.5628 148.492 71.1035 148.744 71.6824 148.833C72.2613 148.921 72.8538 148.842 73.3883 148.605C73.9228 148.369 74.3767 147.984 74.695 147.498C75.0133 147.012 75.1826 146.445 75.1824 145.866C75.1837 145.251 74.9908 144.65 74.6304 144.148C74.5777 144.07 74.555 143.976 74.5664 143.884C74.5778 143.791 74.6226 143.706 74.6925 143.643C74.7341 143.606 74.7831 143.578 74.8363 143.562C74.8896 143.545 74.9459 143.54 75.0013 143.546C75.0568 143.552 75.1103 143.57 75.1582 143.599C75.2061 143.627 75.2472 143.666 75.279 143.711C75.6826 144.285 75.9172 144.958 75.9568 145.656C75.9964 146.354 75.8395 147.049 75.5034 147.663C75.1674 148.278 74.6653 148.789 74.0532 149.139C73.4411 149.488 72.7428 149.664 72.036 149.645V149.617Z" fill="#E6E6E6"/>
<path d="M172.5 291.221C246.387 291.221 306.284 287.764 306.284 283.501C306.284 279.237 246.387 275.78 172.5 275.78C98.6131 275.78 38.7159 279.237 38.7159 283.501C38.7159 287.764 98.6131 291.221 172.5 291.221Z" fill="#F5F5F5"/>
<path d="M250.781 99.4561H228.314L212.444 278.993H234.911C238.064 278.932 241.086 277.734 243.407 275.623C245.728 273.513 247.187 270.636 247.51 267.535L261.372 110.907C261.533 109.448 261.378 107.971 260.916 106.576C260.455 105.18 259.697 103.898 258.695 102.815C257.693 101.731 256.469 100.871 255.104 100.292C253.739 99.7131 252.265 99.4281 250.781 99.4561Z" fill="#407BFF"/>
<path d="M246.199 99.4563H170.161C167.008 99.5147 163.985 100.711 161.663 102.821C159.34 104.93 157.879 107.806 157.555 110.907L143.693 267.535C143.533 268.993 143.689 270.469 144.15 271.863C144.611 273.257 145.367 274.538 146.367 275.622C147.367 276.705 148.589 277.566 149.952 278.147C151.314 278.729 152.786 279.017 154.27 278.993H230.301C233.45 278.926 236.467 277.725 238.783 275.615C241.099 273.505 242.556 270.632 242.88 267.535L256.742 110.907C256.903 109.452 256.748 107.979 256.29 106.587C255.831 105.196 255.078 103.916 254.081 102.833C253.085 101.75 251.866 100.89 250.507 100.307C249.148 99.7252 247.68 99.4351 246.199 99.4563Z" fill="#407BFF"/>
<path opacity="0.3" d="M246.199 99.4563H170.161C167.008 99.5147 163.985 100.711 161.663 102.821C159.34 104.93 157.879 107.806 157.555 110.907L143.693 267.535C143.533 268.993 143.689 270.469 144.15 271.863C144.611 273.257 145.367 274.538 146.367 275.622C147.367 276.705 148.589 277.566 149.952 278.147C151.314 278.729 152.786 279.017 154.27 278.993H230.301C233.45 278.926 236.467 277.725 238.783 275.615C241.099 273.505 242.556 270.632 242.88 267.535L256.742 110.907C256.903 109.452 256.748 107.979 256.29 106.587C255.831 105.196 255.078 103.916 254.081 102.833C253.085 101.75 251.866 100.89 250.507 100.307C249.148 99.7252 247.68 99.4351 246.199 99.4563Z" fill="white"/>
<path opacity="0.4" d="M245.875 103.125H225.823C225.225 103.13 224.643 103.312 224.151 103.648C223.659 103.983 223.28 104.457 223.063 105.008C222.272 107.03 220.89 108.774 219.092 110.017C217.294 111.26 215.162 111.945 212.969 111.984H201.142C199.076 112.026 197.06 111.353 195.442 110.084C193.823 108.814 192.704 107.026 192.275 105.028C192.161 104.487 191.859 104.003 191.422 103.66C190.985 103.316 190.44 103.134 189.881 103.146H169.837C167.693 103.183 165.638 103.996 164.061 105.43C162.483 106.864 161.491 108.82 161.274 110.927L147.405 267.555C147.294 268.547 147.398 269.551 147.71 270.5C148.023 271.448 148.536 272.32 149.217 273.058C149.897 273.795 150.729 274.38 151.656 274.774C152.583 275.168 153.585 275.363 154.595 275.344H230.633C232.776 275.305 234.831 274.491 236.409 273.056C237.987 271.621 238.978 269.664 239.195 267.555L253.058 110.927C253.171 109.935 253.068 108.931 252.757 107.981C252.446 107.031 251.933 106.157 251.253 105.419C250.573 104.68 249.742 104.094 248.814 103.698C247.887 103.303 246.885 103.107 245.875 103.125Z" fill="white"/>
<path d="M226.927 188.232H173.714C173.349 188.238 172.986 188.167 172.65 188.024C172.314 187.881 172.013 187.669 171.766 187.402C171.52 187.135 171.333 186.819 171.219 186.475C171.106 186.132 171.067 185.768 171.106 185.409L171.375 182.394C171.454 181.63 171.814 180.921 172.386 180.4C172.958 179.88 173.703 179.585 174.48 179.571H227.7C228.066 179.565 228.429 179.636 228.764 179.779C229.1 179.922 229.402 180.134 229.648 180.401C229.895 180.668 230.081 180.984 230.195 181.328C230.309 181.671 230.347 182.035 230.308 182.394L230.046 185.409C229.965 186.175 229.603 186.885 229.029 187.405C228.454 187.925 227.706 188.22 226.927 188.232Z" fill="white"/>
<path d="M225.782 201.19H172.562C172.197 201.196 171.834 201.125 171.498 200.982C171.163 200.839 170.862 200.626 170.616 200.359C170.37 200.092 170.184 199.776 170.071 199.433C169.958 199.089 169.921 198.726 169.961 198.367L170.223 195.352C170.304 194.588 170.664 193.88 171.235 193.36C171.807 192.84 172.551 192.544 173.328 192.529H226.548C226.913 192.523 227.276 192.594 227.612 192.737C227.948 192.88 228.249 193.092 228.496 193.359C228.743 193.626 228.929 193.942 229.043 194.286C229.156 194.629 229.195 194.993 229.156 195.352L228.887 198.367C228.806 199.13 228.446 199.839 227.875 200.359C227.303 200.879 226.559 201.174 225.782 201.19Z" fill="white"/>
<path opacity="0.1" d="M210.761 106.058C210.673 106.907 210.273 107.694 209.637 108.271C209.001 108.848 208.174 109.174 207.311 109.188C206.905 109.195 206.502 109.117 206.13 108.959C205.757 108.8 205.423 108.565 205.149 108.269C204.876 107.973 204.669 107.622 204.543 107.241C204.418 106.86 204.375 106.456 204.419 106.058C204.507 105.209 204.907 104.422 205.543 103.845C206.179 103.268 207.006 102.941 207.869 102.927C208.275 102.92 208.678 102.999 209.05 103.157C209.423 103.316 209.757 103.551 210.031 103.847C210.304 104.143 210.511 104.493 210.637 104.875C210.762 105.256 210.805 105.659 210.761 106.058Z" fill="black"/>
<path opacity="0.1" d="M209.325 106.058C209.277 106.521 209.058 106.951 208.711 107.266C208.364 107.582 207.913 107.761 207.442 107.77C207.22 107.774 207 107.731 206.796 107.645C206.592 107.558 206.409 107.43 206.259 107.268C206.11 107.106 205.997 106.914 205.928 106.705C205.86 106.497 205.837 106.276 205.862 106.058C205.909 105.594 206.127 105.163 206.474 104.848C206.821 104.532 207.274 104.354 207.745 104.346C207.967 104.343 208.186 104.386 208.39 104.473C208.593 104.56 208.776 104.689 208.925 104.851C209.074 105.012 209.187 105.204 209.256 105.412C209.325 105.62 209.349 105.84 209.325 106.058Z" fill="black"/>
<g opacity="0.8">
<path d="M236.511 111.282C236.392 111.284 236.274 111.26 236.165 111.213C236.056 111.167 235.958 111.097 235.877 111.01C235.797 110.923 235.737 110.821 235.7 110.709C235.662 110.597 235.65 110.478 235.663 110.361L235.814 108.684C235.84 108.436 235.956 108.206 236.142 108.037C236.328 107.869 236.57 107.773 236.822 107.77C236.94 107.768 237.058 107.791 237.166 107.838C237.275 107.884 237.373 107.953 237.453 108.039C237.533 108.125 237.594 108.227 237.631 108.338C237.669 108.449 237.682 108.567 237.671 108.684L237.519 110.361C237.494 110.61 237.377 110.841 237.192 111.01C237.006 111.18 236.764 111.277 236.511 111.282Z" fill="white"/>
<path d="M243.936 111.282C243.817 111.284 243.699 111.26 243.589 111.213C243.48 111.167 243.382 111.097 243.302 111.01C243.222 110.923 243.161 110.821 243.124 110.709C243.087 110.597 243.074 110.478 243.087 110.361L243.439 106.426C243.464 106.178 243.581 105.948 243.767 105.78C243.952 105.611 244.194 105.516 244.446 105.512C244.565 105.511 244.682 105.534 244.791 105.58C244.9 105.627 244.997 105.695 245.077 105.782C245.158 105.868 245.218 105.97 245.256 106.081C245.293 106.192 245.307 106.31 245.295 106.426L244.943 110.361C244.918 110.61 244.802 110.841 244.616 111.01C244.43 111.18 244.188 111.277 243.936 111.282Z" fill="white"/>
<path d="M240.224 111.282C240.104 111.284 239.986 111.26 239.877 111.213C239.768 111.167 239.67 111.097 239.59 111.01C239.509 110.923 239.449 110.82 239.412 110.709C239.375 110.597 239.362 110.478 239.375 110.361L239.623 107.558C239.649 107.309 239.766 107.077 239.953 106.907C240.14 106.737 240.384 106.641 240.638 106.638C240.756 106.636 240.874 106.659 240.983 106.706C241.092 106.753 241.19 106.822 241.269 106.909C241.349 106.997 241.409 107.1 241.445 107.211C241.481 107.323 241.493 107.442 241.479 107.558L241.231 110.361C241.206 110.61 241.089 110.841 240.904 111.01C240.718 111.18 240.476 111.277 240.224 111.282Z" fill="white"/>
</g>
<g opacity="0.8">
<path d="M172.942 111.282H168.277C168.21 111.283 168.143 111.271 168.082 111.244C168.02 111.218 167.965 111.179 167.92 111.13C167.875 111.081 167.841 111.023 167.82 110.96C167.8 110.896 167.793 110.83 167.801 110.764L168.015 108.288C168.03 108.147 168.097 108.017 168.202 107.922C168.308 107.826 168.445 107.772 168.588 107.77H173.252C173.319 107.768 173.386 107.781 173.448 107.807C173.509 107.833 173.565 107.872 173.61 107.922C173.655 107.971 173.689 108.029 173.709 108.092C173.73 108.155 173.736 108.222 173.728 108.288L173.507 110.764C173.495 110.904 173.431 111.035 173.326 111.131C173.221 111.227 173.084 111.281 172.942 111.282Z" fill="white"/>
<path d="M175.101 110.607C175.034 110.608 174.967 110.595 174.905 110.569C174.843 110.543 174.787 110.504 174.742 110.455C174.696 110.406 174.662 110.348 174.64 110.285C174.619 110.222 174.611 110.155 174.618 110.088L174.722 108.956C174.735 108.815 174.802 108.684 174.907 108.588C175.013 108.493 175.151 108.439 175.295 108.438C175.362 108.437 175.428 108.449 175.49 108.476C175.552 108.502 175.607 108.541 175.652 108.59C175.697 108.639 175.731 108.697 175.752 108.76C175.772 108.824 175.779 108.89 175.771 108.956L175.674 110.088C175.659 110.229 175.592 110.359 175.487 110.455C175.381 110.55 175.244 110.604 175.101 110.607Z" fill="white"/>
</g>
<path d="M218.159 168.407C227.444 159.621 228.37 145.684 220.227 137.276C212.085 128.869 197.957 129.175 188.671 137.961C179.386 146.746 178.46 160.684 186.603 169.091C194.746 177.499 208.874 177.192 218.159 168.407Z" fill="white"/>
<path d="M203.495 152.345C197.644 152.345 192.696 154.548 192.275 159.329L191.806 164.642H213.01L213.479 159.329C213.9 154.548 209.353 152.345 203.495 152.345Z" fill="#407BFF"/>
<path d="M203.688 150.156C206.407 150.156 207.662 147.98 207.897 145.293C208.132 142.606 207.269 140.431 204.551 140.431C201.832 140.431 200.583 142.613 200.342 145.293C200.1 147.974 200.969 150.156 203.688 150.156Z" fill="#407BFF"/>
<path d="M224.498 183.717C223.056 183.717 221.835 184.263 221.738 185.443L221.621 186.759H226.858L226.976 185.443C227.072 184.263 225.947 183.717 224.498 183.717Z" fill="#407BFF"/>
<path d="M224.547 183.178C225.237 183.178 225.527 182.64 225.589 181.978C225.651 181.317 225.43 180.778 224.761 180.778C224.091 180.778 223.781 181.317 223.719 181.978C223.657 182.64 223.877 183.178 224.547 183.178Z" fill="#407BFF"/>
<path d="M208.38 214.148H187.68C187.119 214.158 186.562 214.05 186.046 213.831C185.53 213.611 185.068 213.286 184.689 212.876C184.311 212.467 184.025 211.982 183.85 211.454C183.676 210.927 183.617 210.369 183.678 209.817C183.801 208.645 184.353 207.557 185.232 206.759C186.11 205.961 187.253 205.509 188.446 205.487H209.146C209.707 205.478 210.263 205.587 210.779 205.806C211.294 206.026 211.756 206.351 212.134 206.761C212.513 207.17 212.799 207.654 212.973 208.181C213.148 208.708 213.208 209.266 213.148 209.817C213.027 210.991 212.474 212.079 211.596 212.877C210.717 213.675 209.573 214.127 208.38 214.148Z" fill="#407BFF"/>
<path d="M205.875 262.447H183.719C183.125 262.463 182.534 262.352 181.987 262.122C181.44 261.892 180.949 261.549 180.549 261.114C180.148 260.68 179.846 260.166 179.665 259.606C179.483 259.046 179.426 258.455 179.497 257.871L180.911 241.899C181.038 240.66 181.619 239.509 182.547 238.666C183.474 237.823 184.681 237.345 185.941 237.322H208.104C208.697 237.312 209.285 237.427 209.829 237.659C210.374 237.891 210.862 238.234 211.262 238.667C211.661 239.1 211.963 239.612 212.146 240.17C212.33 240.727 212.392 241.316 212.327 241.899L210.912 257.871C210.783 259.11 210.199 260.26 209.271 261.103C208.343 261.946 207.135 262.424 205.875 262.447Z" fill="#407BFF"/>
<g opacity="0.6">
<path d="M199.044 245.929C199.081 245.581 199.041 245.228 198.93 244.896C198.818 244.563 198.636 244.258 198.396 244C198.156 243.742 197.863 243.538 197.537 243.4C197.211 243.262 196.86 243.195 196.505 243.201C195.75 243.212 195.026 243.495 194.468 243.998C193.91 244.5 193.557 245.187 193.476 245.929C193.432 246.344 193.494 246.763 193.657 247.148C193.82 247.533 194.078 247.871 194.408 248.132L193.925 253.636C193.901 253.844 193.923 254.055 193.988 254.255C194.054 254.454 194.162 254.638 194.305 254.793C194.448 254.948 194.623 255.071 194.818 255.153C195.013 255.236 195.223 255.277 195.436 255.273C195.885 255.263 196.316 255.092 196.646 254.79C196.977 254.489 197.184 254.078 197.23 253.636L197.72 248.132C198.089 247.882 198.399 247.556 198.628 247.175C198.857 246.795 198.999 246.37 199.044 245.929Z" fill="white"/>
</g>
<path d="M208.297 240.651H205.441L206.131 232.746C206.251 231.649 206.134 230.539 205.788 229.49C205.441 228.442 204.873 227.477 204.12 226.662C203.368 225.847 202.449 225.199 201.424 224.762C200.399 224.325 199.291 224.108 198.175 224.126C195.803 224.172 193.529 225.073 191.783 226.661C190.037 228.249 188.938 230.413 188.694 232.746L188.004 240.651H185.148L185.838 232.746C186.159 229.65 187.616 226.778 189.933 224.671C192.251 222.564 195.268 221.368 198.416 221.309C199.898 221.284 201.368 221.571 202.729 222.151C204.09 222.73 205.311 223.59 206.31 224.671C207.309 225.753 208.064 227.033 208.524 228.425C208.985 229.817 209.14 231.29 208.98 232.746L208.297 240.651Z" fill="#407BFF"/>
<path d="M224.85 195.823L224.94 195.052C224.958 194.873 224.939 194.693 224.882 194.523C224.825 194.352 224.732 194.195 224.609 194.063C224.487 193.93 224.338 193.825 224.171 193.753C224.004 193.681 223.824 193.645 223.643 193.647C223.256 193.655 222.886 193.802 222.601 194.061C222.317 194.32 222.137 194.672 222.097 195.052L222.028 195.809C221.874 195.813 221.726 195.873 221.613 195.977C221.5 196.082 221.429 196.223 221.414 196.375L221.235 198.421C221.226 198.493 221.232 198.565 221.255 198.634C221.277 198.703 221.314 198.766 221.363 198.819C221.412 198.872 221.472 198.914 221.54 198.942C221.607 198.97 221.679 198.983 221.752 198.98H224.595C224.749 198.978 224.897 198.919 225.01 198.816C225.123 198.713 225.194 198.573 225.209 198.421L225.389 196.375C225.394 196.303 225.385 196.23 225.36 196.162C225.335 196.094 225.296 196.031 225.245 195.979C225.195 195.927 225.133 195.886 225.065 195.859C224.997 195.832 224.924 195.82 224.85 195.823ZM223.56 194.009C223.697 194.007 223.833 194.034 223.958 194.088C224.084 194.141 224.197 194.221 224.289 194.321C224.382 194.42 224.452 194.538 224.495 194.667C224.538 194.795 224.553 194.931 224.54 195.066L224.471 195.823H222.332L222.401 195.066C222.431 194.78 222.565 194.516 222.779 194.321C222.992 194.126 223.27 194.015 223.56 194.009Z" fill="#407BFF"/>
<path d="M182.057 196.634L181.063 196.43C181.035 196.424 181.009 196.412 180.987 196.395C180.964 196.378 180.946 196.357 180.934 196.332C180.921 196.307 180.914 196.279 180.914 196.251C180.914 196.223 180.92 196.196 180.932 196.171L181.346 195.202C181.363 195.16 181.365 195.114 181.351 195.071C181.336 195.028 181.307 194.991 181.268 194.968C181.229 194.944 181.183 194.935 181.138 194.941C181.093 194.948 181.052 194.97 181.022 195.004L180.269 195.768C180.251 195.791 180.228 195.809 180.202 195.822C180.176 195.834 180.147 195.841 180.118 195.841C180.088 195.841 180.06 195.834 180.033 195.822C180.007 195.809 179.984 195.791 179.966 195.768L179.352 195.004C179.221 194.841 178.938 195.004 178.986 195.202L179.228 196.171C179.235 196.199 179.236 196.228 179.231 196.257C179.226 196.286 179.215 196.313 179.199 196.337C179.182 196.362 179.161 196.382 179.137 196.398C179.112 196.414 179.084 196.425 179.055 196.43L178.027 196.634C177.806 196.675 177.779 196.982 177.992 197.023L178.986 197.228C179.014 197.233 179.04 197.244 179.062 197.262C179.085 197.279 179.103 197.301 179.115 197.326C179.127 197.351 179.133 197.379 179.132 197.407C179.131 197.435 179.124 197.462 179.11 197.487L178.71 198.462C178.693 198.504 178.691 198.55 178.705 198.593C178.72 198.636 178.749 198.673 178.788 198.697C178.826 198.72 178.873 198.73 178.918 198.723C178.963 198.716 179.004 198.694 179.034 198.66L179.786 197.896C179.806 197.875 179.829 197.859 179.855 197.848C179.882 197.836 179.91 197.831 179.938 197.831C179.967 197.831 179.995 197.836 180.021 197.848C180.047 197.859 180.071 197.875 180.09 197.896L180.704 198.66C180.835 198.824 181.118 198.66 181.063 198.462L180.821 197.494C180.811 197.436 180.824 197.376 180.858 197.328C180.891 197.28 180.943 197.246 181.001 197.234L182.029 197.03C182.243 196.982 182.27 196.675 182.057 196.634Z" fill="#263238"/>
<path d="M188.584 196.634L187.59 196.43C187.563 196.424 187.537 196.412 187.514 196.395C187.492 196.378 187.474 196.357 187.461 196.332C187.448 196.307 187.442 196.279 187.441 196.251C187.441 196.223 187.447 196.196 187.459 196.171L187.873 195.202C187.89 195.16 187.892 195.114 187.878 195.071C187.864 195.028 187.835 194.991 187.796 194.968C187.757 194.944 187.711 194.935 187.666 194.941C187.62 194.948 187.579 194.97 187.549 195.004L186.797 195.768C186.779 195.791 186.756 195.809 186.729 195.822C186.703 195.834 186.674 195.841 186.645 195.841C186.616 195.841 186.587 195.834 186.561 195.822C186.534 195.809 186.511 195.791 186.493 195.768L185.879 195.004C185.748 194.841 185.465 195.004 185.52 195.202L185.762 196.171C185.768 196.199 185.768 196.229 185.762 196.258C185.756 196.286 185.745 196.314 185.728 196.338C185.711 196.362 185.69 196.383 185.665 196.398C185.64 196.414 185.612 196.425 185.582 196.43L184.554 196.634C184.334 196.675 184.306 196.982 184.52 197.023L185.513 197.228C185.541 197.233 185.567 197.245 185.59 197.262C185.612 197.279 185.63 197.301 185.643 197.326C185.655 197.351 185.662 197.378 185.662 197.406C185.663 197.434 185.657 197.462 185.645 197.487L185.231 198.455C185.213 198.497 185.212 198.544 185.226 198.587C185.24 198.629 185.269 198.666 185.308 198.69C185.347 198.713 185.393 198.723 185.438 198.716C185.483 198.709 185.525 198.687 185.555 198.653L186.307 197.889C186.326 197.869 186.35 197.852 186.376 197.841C186.402 197.83 186.43 197.824 186.459 197.824C186.487 197.824 186.515 197.83 186.542 197.841C186.568 197.852 186.591 197.869 186.611 197.889L187.225 198.653C187.356 198.817 187.639 198.653 187.59 198.455L187.349 197.487C187.343 197.459 187.342 197.429 187.348 197.401C187.353 197.373 187.364 197.346 187.38 197.322C187.396 197.298 187.417 197.277 187.441 197.261C187.466 197.245 187.493 197.233 187.521 197.228L188.549 197.023C188.77 196.982 188.798 196.675 188.584 196.634Z" fill="#263238"/>
<path d="M195.111 196.634L194.125 196.43C194.096 196.425 194.069 196.415 194.046 196.398C194.023 196.381 194.004 196.359 193.991 196.334C193.978 196.308 193.972 196.28 193.972 196.252C193.973 196.223 193.98 196.196 193.994 196.171L194.408 195.202C194.434 195.159 194.442 195.107 194.43 195.057C194.417 195.008 194.386 194.966 194.342 194.94C194.298 194.913 194.245 194.905 194.196 194.918C194.146 194.93 194.103 194.961 194.076 195.004L193.331 195.768C193.312 195.791 193.289 195.809 193.262 195.822C193.235 195.835 193.206 195.841 193.176 195.841C193.146 195.841 193.117 195.835 193.09 195.822C193.063 195.809 193.039 195.791 193.021 195.768L192.407 195.004C192.275 194.841 191.993 195.004 192.048 195.202L192.289 196.171C192.295 196.199 192.296 196.228 192.29 196.256C192.285 196.285 192.274 196.312 192.258 196.336C192.242 196.36 192.221 196.381 192.197 196.397C192.173 196.413 192.145 196.424 192.117 196.43L191.089 196.634C190.868 196.675 190.84 196.982 191.054 197.023L192.041 197.228C192.068 197.233 192.094 197.245 192.117 197.262C192.139 197.279 192.158 197.301 192.17 197.326C192.183 197.351 192.189 197.378 192.19 197.406C192.19 197.434 192.184 197.462 192.172 197.487L191.758 198.455C191.731 198.499 191.723 198.551 191.736 198.6C191.748 198.649 191.78 198.692 191.823 198.718C191.867 198.744 191.92 198.752 191.97 198.74C192.02 198.728 192.063 198.696 192.089 198.653L192.834 197.889C192.854 197.869 192.877 197.852 192.903 197.841C192.929 197.83 192.958 197.824 192.986 197.824C193.015 197.824 193.043 197.83 193.069 197.841C193.095 197.852 193.119 197.869 193.138 197.889L193.759 198.653C193.89 198.817 194.173 198.653 194.118 198.455L193.876 197.487C193.866 197.43 193.878 197.371 193.91 197.323C193.942 197.275 193.992 197.241 194.049 197.228L195.077 197.023C195.27 196.982 195.325 196.675 195.111 196.634Z" fill="#263238"/>
<path d="M201.646 196.634L200.652 196.43C200.624 196.424 200.598 196.412 200.576 196.395C200.554 196.378 200.535 196.357 200.523 196.332C200.51 196.307 200.503 196.279 200.503 196.251C200.503 196.223 200.509 196.196 200.521 196.171L200.935 195.202C200.952 195.16 200.954 195.114 200.94 195.071C200.925 195.028 200.896 194.991 200.857 194.968C200.819 194.944 200.772 194.935 200.727 194.941C200.682 194.948 200.641 194.97 200.611 195.004L199.859 195.768C199.84 195.791 199.817 195.809 199.791 195.822C199.765 195.834 199.736 195.841 199.707 195.841C199.677 195.841 199.649 195.834 199.622 195.822C199.596 195.809 199.573 195.791 199.555 195.768L198.941 195.004C198.81 194.841 198.527 195.004 198.575 195.202L198.817 196.171C198.824 196.199 198.825 196.228 198.82 196.257C198.815 196.286 198.804 196.313 198.788 196.337C198.771 196.362 198.75 196.382 198.726 196.398C198.701 196.414 198.673 196.425 198.644 196.43L197.616 196.634C197.395 196.675 197.368 196.982 197.616 197.023L198.61 197.228C198.637 197.233 198.664 197.244 198.686 197.262C198.708 197.279 198.726 197.301 198.738 197.326C198.751 197.351 198.756 197.379 198.756 197.407C198.755 197.435 198.747 197.462 198.734 197.487L198.327 198.455C198.309 198.497 198.308 198.544 198.322 198.587C198.336 198.629 198.365 198.666 198.404 198.69C198.443 198.713 198.489 198.723 198.534 198.716C198.58 198.709 198.621 198.687 198.651 198.653L199.403 197.889C199.422 197.869 199.446 197.852 199.472 197.841C199.498 197.83 199.526 197.824 199.555 197.824C199.583 197.824 199.612 197.83 199.638 197.841C199.664 197.852 199.687 197.869 199.707 197.889L200.321 198.653C200.452 198.817 200.735 198.653 200.68 198.455L200.438 197.487C200.428 197.429 200.441 197.37 200.475 197.321C200.508 197.273 200.559 197.239 200.618 197.228L201.646 197.023C201.832 196.982 201.86 196.675 201.646 196.634Z" fill="#263238"/>
<path d="M208.173 196.634L207.179 196.43C207.152 196.424 207.126 196.412 207.103 196.395C207.081 196.378 207.063 196.357 207.05 196.332C207.037 196.307 207.031 196.279 207.03 196.251C207.03 196.223 207.036 196.196 207.048 196.171L207.462 195.202C207.48 195.16 207.481 195.114 207.467 195.071C207.453 195.028 207.424 194.991 207.385 194.968C207.346 194.944 207.3 194.935 207.255 194.941C207.209 194.948 207.168 194.97 207.138 195.004L206.386 195.768C206.368 195.791 206.345 195.809 206.318 195.822C206.292 195.834 206.263 195.841 206.234 195.841C206.205 195.841 206.176 195.834 206.15 195.822C206.123 195.809 206.1 195.791 206.082 195.768L205.468 195.004C205.337 194.841 205.054 195.004 205.109 195.202L205.351 196.171C205.357 196.199 205.357 196.229 205.351 196.258C205.345 196.286 205.334 196.314 205.317 196.338C205.3 196.362 205.279 196.383 205.254 196.398C205.229 196.414 205.201 196.425 205.172 196.43L204.143 196.634C203.923 196.675 203.895 196.982 204.109 197.023L205.103 197.228C205.13 197.233 205.156 197.245 205.179 197.262C205.201 197.279 205.219 197.301 205.232 197.326C205.244 197.351 205.251 197.378 205.251 197.406C205.252 197.434 205.246 197.462 205.234 197.487L204.82 198.455C204.802 198.497 204.801 198.544 204.815 198.587C204.829 198.629 204.858 198.666 204.897 198.69C204.936 198.713 204.982 198.723 205.027 198.716C205.072 198.709 205.114 198.687 205.144 198.653L205.896 197.889C205.915 197.869 205.939 197.852 205.965 197.841C205.991 197.83 206.019 197.824 206.048 197.824C206.076 197.824 206.105 197.83 206.131 197.841C206.157 197.852 206.18 197.869 206.2 197.889L206.814 198.653C206.945 198.817 207.228 198.653 207.179 198.455L206.938 197.487C206.932 197.459 206.932 197.429 206.937 197.401C206.942 197.373 206.953 197.346 206.969 197.322C206.985 197.298 207.006 197.277 207.03 197.261C207.055 197.245 207.082 197.233 207.11 197.228L208.139 197.023C208.38 196.982 208.38 196.675 208.173 196.634Z" fill="#263238"/>
<path d="M214.7 196.634L213.707 196.43C213.679 196.425 213.653 196.413 213.63 196.396C213.608 196.379 213.59 196.357 213.578 196.331C213.566 196.306 213.56 196.278 213.561 196.25C213.562 196.222 213.569 196.195 213.583 196.171L213.997 195.202C214.01 195.181 214.018 195.157 214.022 195.132C214.026 195.107 214.025 195.082 214.019 195.057C214.013 195.033 214.002 195.01 213.987 194.99C213.972 194.97 213.953 194.953 213.931 194.94C213.909 194.927 213.885 194.918 213.86 194.914C213.835 194.91 213.809 194.912 213.785 194.918C213.76 194.924 213.737 194.934 213.716 194.949C213.696 194.964 213.679 194.983 213.665 195.004L212.92 195.768C212.901 195.791 212.878 195.809 212.851 195.822C212.824 195.835 212.795 195.841 212.765 195.841C212.735 195.841 212.706 195.835 212.679 195.822C212.652 195.809 212.628 195.791 212.61 195.768L211.996 195.004C211.865 194.841 211.582 195.004 211.637 195.202L211.878 196.171C211.884 196.199 211.885 196.228 211.879 196.256C211.874 196.285 211.863 196.312 211.847 196.336C211.831 196.36 211.81 196.381 211.786 196.397C211.762 196.413 211.734 196.424 211.706 196.43L210.678 196.634C210.457 196.675 210.429 196.982 210.643 197.023L211.63 197.228C211.658 197.233 211.684 197.245 211.706 197.262C211.728 197.279 211.747 197.301 211.759 197.326C211.772 197.351 211.779 197.378 211.779 197.406C211.779 197.434 211.773 197.462 211.761 197.487L211.347 198.455C211.32 198.499 211.312 198.551 211.325 198.6C211.337 198.649 211.369 198.692 211.413 198.718C211.456 198.744 211.509 198.752 211.559 198.74C211.609 198.728 211.652 198.696 211.678 198.653L212.423 197.889C212.443 197.869 212.466 197.852 212.492 197.841C212.519 197.83 212.547 197.824 212.575 197.824C212.604 197.824 212.632 197.83 212.658 197.841C212.684 197.852 212.708 197.869 212.727 197.889L213.341 198.653C213.373 198.689 213.417 198.713 213.464 198.721C213.512 198.729 213.561 198.721 213.604 198.698C213.646 198.675 213.679 198.638 213.698 198.594C213.717 198.55 213.72 198.501 213.707 198.455L213.465 197.487C213.455 197.43 213.467 197.371 213.499 197.323C213.531 197.275 213.581 197.241 213.638 197.228L214.666 197.023C214.887 196.982 214.914 196.675 214.7 196.634Z" fill="#263238"/>
<path d="M198.962 182.51H186.707C186.331 182.516 185.97 182.659 185.693 182.91C185.416 183.161 185.242 183.504 185.203 183.874C185.183 184.048 185.201 184.224 185.256 184.391C185.311 184.557 185.401 184.71 185.521 184.839C185.64 184.969 185.787 185.071 185.95 185.14C186.113 185.209 186.288 185.242 186.466 185.238H198.72C199.096 185.232 199.457 185.089 199.734 184.838C200.011 184.587 200.185 184.244 200.224 183.874C200.243 183.7 200.224 183.525 200.169 183.358C200.113 183.192 200.023 183.04 199.904 182.911C199.784 182.782 199.639 182.68 199.476 182.611C199.314 182.541 199.138 182.507 198.962 182.51Z" fill="#263238"/>
<path d="M211.409 182.51H204.295C203.92 182.517 203.56 182.659 203.284 182.911C203.008 183.162 202.835 183.505 202.798 183.874C202.778 184.047 202.796 184.223 202.851 184.389C202.905 184.555 202.995 184.708 203.114 184.837C203.232 184.966 203.378 185.068 203.54 185.138C203.702 185.207 203.877 185.241 204.054 185.238H211.14C211.515 185.231 211.875 185.089 212.151 184.838C212.427 184.586 212.6 184.243 212.637 183.874C212.657 183.703 212.639 183.53 212.587 183.366C212.534 183.201 212.447 183.05 212.331 182.921C212.215 182.793 212.073 182.69 211.914 182.619C211.755 182.548 211.583 182.511 211.409 182.51Z" fill="#263238"/>
<path d="M220.8 244.333C216.469 245.964 212.559 248.527 209.353 251.835C207.406 250.342 205.086 249.399 202.639 249.107L202.315 249.06L202.177 250.669L202.356 250.737C205.04 251.714 207.309 253.56 208.794 255.975L209.029 256.357L209.284 255.948C212.141 251.439 216.174 247.773 220.959 245.336L221.117 245.254L221.207 244.19L220.8 244.333Z" fill="#263238"/>
<path opacity="0.2" d="M159.142 110.054C158.262 111.572 157.721 113.258 157.555 114.999L147.28 231.089H179.076L185.465 206.885L183.361 182.674L189.75 158.47L187.68 134.265L194.069 110.054H159.142Z" fill="black"/>
<path d="M184.886 127.445L191.275 103.234H110.869L104.487 127.445L106.584 151.65L100.202 175.854L102.299 200.065L95.9169 224.269H176.316L182.705 200.065L180.601 175.854L186.99 151.65L184.886 127.445Z" fill="#407BFF"/>
<path opacity="0.7" d="M184.886 127.445L191.275 103.234H110.869L104.487 127.445L106.584 151.65L100.202 175.854L102.299 200.065L95.9169 224.269H176.316L182.705 200.065L180.601 175.854L186.99 151.65L184.886 127.445Z" fill="white"/>
<path opacity="0.5" d="M184.886 127.445H104.487L110.869 103.234H191.275L184.886 127.445Z" fill="white"/>
<path opacity="0.5" d="M180.601 175.854H100.202L106.584 151.65H186.99L180.601 175.854Z" fill="white"/>
<path opacity="0.5" d="M176.316 224.269H95.91L102.299 200.065H182.705L176.316 224.269Z" fill="white"/>
<path opacity="0.2" d="M174.128 137.559C173.303 137.795 172.448 137.91 171.589 137.9C170.425 137.951 169.266 137.717 168.215 137.218C168.025 137.107 167.808 137.048 167.587 137.048C167.385 137.051 167.186 137.102 167.008 137.198H166.966C166.658 137.369 166.329 137.5 165.986 137.587C165.214 137.788 164.418 137.887 163.62 137.88C163.378 137.88 163.144 137.88 162.93 137.88C162.31 137.841 161.697 137.733 161.101 137.559C161.014 137.534 160.923 137.518 160.832 137.512C160.68 137.499 160.528 137.518 160.384 137.567C160.24 137.616 160.107 137.694 159.995 137.796C159.883 137.898 159.794 138.021 159.732 138.159C159.671 138.297 159.639 138.445 159.638 138.596V139.333H128.34C127.765 139.333 127.196 139.445 126.664 139.662C126.133 139.88 125.651 140.199 125.244 140.601C124.838 141.004 124.516 141.481 124.296 142.006C124.077 142.532 123.965 143.095 123.965 143.663V148.021C123.964 148.59 124.075 149.154 124.294 149.68C124.513 150.206 124.835 150.685 125.242 151.088C125.648 151.49 126.131 151.81 126.663 152.028C127.194 152.246 127.764 152.359 128.34 152.359H163.896H164.13C164.51 152.672 164.91 152.986 165.338 153.307C165.766 153.627 166.373 154.071 166.932 154.466C167.122 154.603 167.352 154.676 167.587 154.676C167.823 154.676 168.052 154.603 168.243 154.466C172.714 151.261 175.584 149.051 175.584 142.981V138.616C175.586 138.442 175.546 138.269 175.468 138.113C175.389 137.957 175.274 137.821 175.131 137.718C174.989 137.615 174.824 137.546 174.649 137.519C174.475 137.491 174.296 137.505 174.128 137.559Z" fill="black"/>
<path d="M163.213 136.939H127.664C125.244 136.939 123.282 138.878 123.282 141.269V145.627C123.282 148.019 125.244 149.958 127.664 149.958H163.213C165.632 149.958 167.594 148.019 167.594 145.627V141.269C167.594 138.878 165.632 136.939 163.213 136.939Z" fill="#407BFF"/>
<path d="M170.906 135.5C169.742 135.549 168.583 135.315 167.532 134.818C167.345 134.704 167.13 134.644 166.911 134.644C166.692 134.644 166.477 134.704 166.29 134.818C165.237 135.316 164.076 135.55 162.909 135.5C162.05 135.509 161.195 135.394 160.37 135.159C160.204 135.104 160.026 135.088 159.853 135.114C159.68 135.14 159.515 135.206 159.373 135.308C159.23 135.409 159.114 135.542 159.035 135.697C158.955 135.851 158.914 136.022 158.914 136.195V140.56C158.914 146.637 161.784 148.847 166.256 152.052C166.446 152.188 166.676 152.262 166.911 152.262C167.146 152.262 167.376 152.188 167.567 152.052C172.038 148.847 174.908 146.637 174.908 140.56V136.195C174.907 136.022 174.865 135.851 174.784 135.697C174.704 135.542 174.587 135.409 174.445 135.308C174.302 135.207 174.137 135.14 173.963 135.115C173.789 135.089 173.612 135.104 173.445 135.159C172.62 135.394 171.765 135.509 170.906 135.5Z" fill="#407BFF"/>
<path opacity="0.3" d="M170.906 135.5C169.742 135.549 168.583 135.315 167.532 134.818C167.345 134.704 167.13 134.644 166.911 134.644C166.692 134.644 166.477 134.704 166.29 134.818C165.237 135.316 164.076 135.55 162.909 135.5C162.05 135.509 161.195 135.394 160.37 135.159C160.204 135.104 160.026 135.088 159.853 135.114C159.68 135.14 159.515 135.206 159.373 135.308C159.23 135.409 159.114 135.542 159.035 135.697C158.955 135.851 158.914 136.022 158.914 136.195V140.56C158.914 146.637 161.784 148.847 166.256 152.052C166.446 152.188 166.676 152.262 166.911 152.262C167.146 152.262 167.376 152.188 167.567 152.052C172.038 148.847 174.908 146.637 174.908 140.56V136.195C174.907 136.022 174.865 135.851 174.784 135.697C174.704 135.542 174.587 135.409 174.445 135.308C174.302 135.207 174.137 135.14 173.963 135.115C173.789 135.089 173.612 135.104 173.445 135.159C172.62 135.394 171.765 135.509 170.906 135.5Z" fill="white"/>
<path opacity="0.2" d="M166.29 134.804C165.237 135.302 164.076 135.536 162.909 135.486C162.05 135.495 161.195 135.38 160.37 135.145C160.204 135.09 160.026 135.075 159.853 135.1C159.68 135.126 159.515 135.193 159.373 135.294C159.23 135.395 159.114 135.529 159.035 135.683C158.955 135.837 158.914 136.008 158.914 136.182V140.547C158.914 146.623 161.784 148.833 166.256 152.038C166.456 152.182 166.698 152.256 166.946 152.25V134.627C166.714 134.622 166.487 134.684 166.29 134.804Z" fill="white"/>
<path d="M173.321 139.374C170.631 140.415 168.236 142.083 166.338 144.236C165.015 143.272 163.464 142.659 161.833 142.456H161.619V143.5L161.736 143.541C163.55 144.188 165.114 145.38 166.207 146.951L166.38 147.196L166.525 146.93C168.111 144.016 170.527 141.626 173.473 140.056L173.576 140.008V139.326L173.321 139.374Z" fill="#263238"/>
<path d="M189.854 110.048H186.804C186.411 110.055 186.022 109.979 185.661 109.826C185.301 109.673 184.978 109.445 184.713 109.158C184.449 108.872 184.249 108.533 184.128 108.164C184.006 107.795 183.966 107.405 184.009 107.019L184.278 104.005C184.361 103.185 184.745 102.424 185.359 101.866C185.972 101.308 186.771 100.991 187.604 100.977H190.654C191.047 100.969 191.437 101.044 191.798 101.196C192.16 101.349 192.484 101.577 192.749 101.863C193.014 102.15 193.214 102.489 193.336 102.859C193.458 103.228 193.499 103.619 193.455 104.005L193.186 107.019C193.093 107.836 192.705 108.593 192.093 109.149C191.48 109.706 190.685 110.025 189.854 110.048Z" fill="#407BFF"/>
<path d="M191.123 103.998L190.461 103.275L188.791 104.789L187.397 103.275L186.604 103.998L188.004 105.512L186.341 107.026L187.004 107.742L188.667 106.228L190.067 107.742L190.854 107.026L189.453 105.512L191.123 103.998Z" fill="white"/>
<path d="M121.695 136.052C123.462 137.955 125.145 139.926 126.822 141.911C128.499 143.895 130.12 145.921 131.735 147.953C131.804 148.042 131.776 148.008 131.79 148.035C131.804 148.062 131.79 148.069 131.79 148.076C131.802 148.101 131.818 148.124 131.838 148.144C131.897 148.227 131.972 148.297 132.058 148.351C132.145 148.405 132.241 148.441 132.342 148.458C132.42 148.468 132.499 148.468 132.577 148.458C132.618 148.461 132.659 148.461 132.701 148.458H132.763C132.797 148.458 132.763 148.458 132.873 148.417L134.598 147.489C136.917 146.275 139.256 145.089 141.671 144.025L143.692 146.5C141.747 148.267 139.718 150.483 137.669 152.106L136.123 153.307C136.027 153.384 135.926 153.455 135.82 153.518C135.702 153.6 135.58 153.676 135.454 153.743C135.204 153.885 134.946 154.013 134.681 154.125C134.146 154.347 133.585 154.501 133.011 154.582C131.85 154.751 130.665 154.633 129.561 154.241C129 154.044 128.466 153.776 127.974 153.443C127.726 153.279 127.491 153.088 127.284 152.904C127.167 152.809 127.07 152.7 126.96 152.597L126.684 152.325C124.855 150.47 123.055 148.601 121.288 146.698C119.522 144.795 117.776 142.879 116.106 140.888L121.695 136.052Z" fill="#B55B52"/>
<path d="M140.76 145.525L142.368 140.417L146.604 142.504C146.604 142.504 145.983 146.228 142.906 146.876L140.76 145.525Z" fill="#B55B52"/>
<path d="M144.058 139.005L147.881 140.042L146.597 142.504L142.361 140.417L144.058 139.005Z" fill="#B55B52"/>
<path d="M99.4221 137.443C98.9667 139.612 98.4009 141.76 97.8144 143.902C97.2279 146.043 96.5862 148.164 95.9169 150.285L95.6685 151.083L95.5443 151.479C95.5276 151.536 95.5045 151.591 95.4753 151.643C95.3966 151.862 95.3524 152.092 95.3442 152.325C95.3296 152.82 95.4693 153.308 95.7444 153.723C95.8801 153.905 96.0301 154.076 96.1929 154.234L96.7656 154.855L97.8972 156.103C98.6355 156.949 99.3807 157.794 100.084 158.681L97.6764 161.409C96.6828 160.85 95.7306 160.243 94.7784 159.643L93.3639 158.715L92.6739 158.244C92.4393 158.081 92.2461 157.972 91.8666 157.665C90.5165 156.528 89.585 154.981 89.217 153.266C89.0318 152.392 88.9875 151.494 89.0859 150.606C89.0859 150.388 89.1549 150.142 89.1894 149.924L89.2653 149.515L89.4102 148.696C89.7966 146.507 90.2106 144.325 90.6729 142.156C91.1352 139.987 91.632 137.825 92.2185 135.691L99.4221 137.443Z" fill="#B55B52"/>
<path d="M97.7247 158.463L100.567 157.024L101.823 161.798C101.823 161.798 99.5394 162.664 97.773 161.552L97.7247 158.463Z" fill="#B55B52"/>
<path d="M104.5 155.489L104.632 159.881L101.451 161.934L100.347 157.112L104.5 155.489Z" fill="#B55B52"/>
<path d="M113.809 114.897C113.878 115.231 114.119 115.469 114.34 115.429C114.561 115.388 114.692 115.074 114.623 114.747C114.554 114.419 114.312 114.174 114.091 114.215C113.871 114.255 113.74 114.576 113.809 114.897Z" fill="#263238"/>
<path d="M114.085 115.476C114.706 116.427 115.456 117.29 116.313 118.041C116.114 118.253 115.869 118.42 115.598 118.53C115.326 118.639 115.033 118.689 114.74 118.675L114.085 115.476Z" fill="#A02724"/>
<path d="M112.173 113.273C112.134 113.273 112.095 113.261 112.062 113.239C112.028 113.218 112.002 113.187 111.986 113.151C111.97 113.115 111.965 113.075 111.971 113.037C111.978 112.998 111.995 112.962 112.022 112.932C112.238 112.691 112.508 112.503 112.812 112.385C113.115 112.266 113.442 112.22 113.767 112.25C113.794 112.255 113.819 112.265 113.842 112.28C113.865 112.295 113.885 112.314 113.9 112.336C113.915 112.358 113.926 112.383 113.932 112.409C113.937 112.436 113.938 112.463 113.933 112.489C113.929 112.515 113.919 112.54 113.905 112.563C113.891 112.585 113.872 112.605 113.851 112.62C113.829 112.635 113.804 112.646 113.778 112.652C113.752 112.657 113.725 112.658 113.698 112.653C113.441 112.628 113.181 112.665 112.941 112.76C112.701 112.855 112.488 113.005 112.318 113.198C112.281 113.241 112.23 113.268 112.173 113.273Z" fill="#263238"/>
<path d="M103.859 119.65C104.618 122.78 105.384 128.516 102.665 130.596C102.665 130.596 103.728 133.774 110.945 133.774C118.88 133.774 114.74 131.728 114.74 131.728C110.407 130.896 110.517 127.179 111.29 124.745L103.859 119.65Z" fill="#B55B52"/>
<path d="M101.816 131.176C101.347 130.31 100.823 129.314 101.899 129C103.086 128.659 110.697 128.025 112.939 128.666C112.249 129.873 113.415 131.394 113.415 131.394L101.816 131.176Z" fill="#263238"/>
<path d="M108.123 277.519H113.098L113.595 267.617H108.613L108.123 277.519Z" fill="#B55B52"/>
<path d="M76.5279 276.155L81.5718 276.421L84.6354 266.662L79.5915 266.396L76.5279 276.155Z" fill="#B55B52"/>
<path d="M81.42 276.026L76.6659 275.01C76.5826 274.991 76.4954 275.001 76.4188 275.038C76.3422 275.076 76.2808 275.138 76.245 275.214L74.5959 278.754C74.5553 278.84 74.5352 278.934 74.537 279.029C74.5389 279.123 74.5628 279.217 74.6067 279.301C74.6507 279.385 74.7137 279.458 74.7907 279.515C74.8678 279.571 74.9569 279.61 75.0513 279.627C76.7142 279.954 77.5422 280.029 79.6329 280.479C80.9163 280.752 83.8212 281.455 85.5945 281.843C87.3678 282.232 87.9819 280.541 87.2919 280.227C84.1869 278.829 82.8897 277.594 82.0479 276.442C81.8968 276.232 81.6735 276.084 81.42 276.026Z" fill="#263238"/>
<path d="M112.836 277.022H108.109C108.024 277.023 107.941 277.052 107.875 277.105C107.808 277.159 107.762 277.232 107.743 277.315L106.888 281.114C106.866 281.206 106.865 281.301 106.886 281.394C106.907 281.486 106.949 281.572 107.009 281.646C107.069 281.719 107.145 281.779 107.232 281.819C107.319 281.859 107.413 281.879 107.509 281.877C109.213 281.877 111.649 281.748 113.822 281.748C116.327 281.748 118.487 281.884 121.412 281.884C123.186 281.884 123.682 280.111 122.937 279.947C119.549 279.218 116.789 279.136 113.864 277.356C113.558 277.154 113.203 277.039 112.836 277.022Z" fill="#263238"/>
<path d="M93.6468 132.042C89.8932 133.808 88.872 144.516 88.872 144.516L98.1663 148.758C99.7373 146.139 100.593 143.161 100.65 140.117C100.837 134.586 97.4901 130.262 93.6468 132.042Z" fill="#263238"/>
<path opacity="0.4" d="M98.67 138.644C96.9933 141.222 97.152 145.205 97.7316 148.567L98.1456 148.758C99.7152 146.138 100.571 143.161 100.63 140.117C100.63 139.79 100.63 139.435 100.63 139.142L98.67 138.644Z" fill="black"/>
<path d="M119.584 131.783C119.584 131.783 124.193 136.925 119.839 168.747H96.7035C96.5448 165.235 98.7735 148.11 95.3235 131.565C97.8805 131.078 100.466 130.755 103.065 130.596C106.342 130.412 109.628 130.412 112.905 130.596C115.159 130.822 117.392 131.219 119.584 131.783Z" fill="#407BFF"/>
<path opacity="0.6" d="M119.584 131.783C119.584 131.783 124.193 136.925 119.839 168.747H96.7035C96.5448 165.235 98.7735 148.11 95.3235 131.565C97.8805 131.078 100.466 130.755 103.065 130.596C106.342 130.412 109.628 130.412 112.905 130.596C115.159 130.822 117.392 131.219 119.584 131.783Z" fill="#FAFAFA"/>
<path opacity="0.2" d="M121.606 141.508L121.523 141.433L116.92 139.005C116.451 146.009 119.618 150.401 121.502 152.318C121.738 148.719 121.773 145.111 121.606 141.508Z" fill="black"/>
<path opacity="0.2" d="M113.595 267.617L113.339 272.725H108.358L108.613 267.617H113.595Z" fill="black"/>
<path opacity="0.2" d="M79.5915 266.403L84.6354 266.662L83.0553 271.695L78.0114 271.429L79.5915 266.403Z" fill="black"/>
<path d="M102.258 116.472C103.369 120.564 103.81 123.026 106.398 124.731C110.248 127.295 115.037 124.349 115.189 120.005C115.32 116.097 113.484 110.048 109.034 109.222C108.051 109.03 107.035 109.09 106.083 109.397C105.13 109.703 104.273 110.246 103.594 110.973C102.914 111.701 102.434 112.588 102.201 113.551C101.967 114.513 101.986 115.519 102.258 116.472Z" fill="#B55B52"/>
<path d="M111.635 168.747C111.635 168.747 106.722 201.422 104.045 213.671C101.078 227.106 85.2495 271.436 85.2495 271.436L77.5008 269.779C77.5008 269.779 87.4299 233.633 89.9208 214.891C90.8868 207.573 92.0529 195.795 93.5295 185.954C94.9578 176.406 96.7173 168.754 96.7173 168.754L111.635 168.747Z" fill="#263238"/>
<path d="M87.1056 268.879L85.6566 271.647L76.9488 269.779L77.6802 267.194L87.1056 268.879Z" fill="#407BFF"/>
<path opacity="0.6" d="M87.1056 268.879L85.6566 271.647L76.9488 269.779L77.6802 267.194L87.1056 268.879Z" fill="white"/>
<path opacity="0.6" d="M108.53 180.389C102.851 181.487 103.452 202.418 104.135 213.18C105.777 205.568 108.171 190.933 109.807 180.539C109.411 180.346 108.96 180.294 108.53 180.389Z" fill="black"/>
<path d="M119.839 168.747C119.839 168.747 122.151 200.719 121.681 213.759C121.192 227.324 114.685 271.729 114.685 271.729H107.357C107.357 271.729 107.088 228.081 106.764 214.789C106.405 200.263 104.632 168.74 104.632 168.74L119.839 168.747Z" fill="#263238"/>
<path d="M116.092 268.851C116.127 268.851 115.678 271.859 115.678 271.859H106.764L106.522 269.172L116.092 268.851Z" fill="#407BFF"/>
<path opacity="0.6" d="M116.092 268.851C116.127 268.851 115.678 271.859 115.678 271.859H106.764L106.522 269.172L116.092 268.851Z" fill="white"/>
<path d="M116.886 137.764C116.886 146.344 121.502 149.876 121.502 149.876L129.03 142.634C127.248 139.69 125.219 136.9 122.965 134.293C118.611 129.362 116.886 132.253 116.886 137.764Z" fill="#263238"/>
<path opacity="0.2" d="M114.899 121.56C114.745 121.99 114.488 122.376 114.149 122.685C113.809 122.994 113.399 123.217 112.953 123.333C112.462 123.432 112.017 123.684 111.683 124.053C111.349 124.421 111.143 124.886 111.097 125.379C111.99 125.084 112.8 124.584 113.461 123.92C114.122 123.256 114.615 122.447 114.899 121.56Z" fill="black"/>
<path d="M112.953 108.322C114.499 106.392 112.118 106.276 112.118 106.276C112.739 103.978 109.951 105.212 109.951 105.212C108.282 102.934 107.336 105.71 107.336 105.71C105.604 103.78 105.266 106.931 105.266 106.931C103.528 104.482 102.644 108.015 102.644 108.015C101.044 105.471 100.064 108.779 100.064 108.779C96.7587 107.613 98.325 111.009 98.325 111.009C95.5098 111.084 97.773 113.246 97.773 113.246C94.392 113.246 97.3728 115.163 97.3728 115.163C94.6887 116.902 98.0628 117.372 98.0628 117.372C95.8755 120.782 99.636 119.5 99.636 119.5C98.1111 122.855 101.485 121.376 101.485 121.376C101.271 124.608 103.155 123.728 104.066 123.128C104.238 123.81 104.569 124.492 105.177 124.547C106.357 124.704 106.557 122.501 106.557 122.501C106.557 122.501 107.647 123.347 108.565 122.89C109.482 122.433 109.137 121.28 109.137 121.28C109.337 121.427 109.579 121.507 109.827 121.507C110.076 121.507 110.318 121.427 110.517 121.28C110.911 120.98 110.911 118.811 110.414 118.047L112.208 117.365C112.208 117.365 113.539 117.181 112.946 115.442C112.588 114.443 112.557 113.357 112.856 112.339C114.885 111.398 113.215 110.293 113.215 110.293C115.568 108.799 112.953 108.322 112.953 108.322Z" fill="#263238"/>
<path d="M109.317 116.622C109.598 117.64 110.211 118.536 111.062 119.173C112.187 120.005 113.029 119.173 112.946 117.925C112.877 116.793 112.201 114.999 110.959 114.658C109.717 114.317 109.02 115.415 109.317 116.622Z" fill="#B55B52"/>
</svg>
